<?xml version="1.0" encoding="UTF-8" standalone="no"?><svg xmlns="http://www.w3.org/2000/svg" xmlns:xlink="http://www.w3.org/1999/xlink" clip-rule="evenodd" stroke-miterlimit="4.00" viewBox="0 0 148 23"><desc>SVG generated by Keynote</desc><defs></defs><g transform="matrix(1.00, 0.00, -0.00, -1.00, 0.0, 23.0)"><text xml:space="preserve" font-family="AvenirNextCondensed-DemiBold" font-weight="bold" font-size="25.0" fill="#324763" transform="matrix(1.00, 0.00, -0.00, -1.00, 0.0, 3.0)">P</text><text xml:space="preserve" font-family="AvenirNextCondensed-DemiBold" font-weight="bold" font-size="25.0" fill="#324763" transform="matrix(1.00, 0.00, -0.00, -1.00, 12.4, 3.0)">O</text><text xml:space="preserve" font-family="AvenirNextCondensed-DemiBold" font-weight="bold" font-size="25.0" fill="#324763" transform="matrix(1.00, 0.00, -0.00, -1.00, 27.1, 3.0)">W</text><text xml:space="preserve" font-family="AvenirNextCondensed-DemiBold" font-weight="bold" font-size="25.0" fill="#324763" transform="matrix(1.00, 0.00, -0.00, -1.00, 46.4, 3.0)">E</text><text xml:space="preserve" font-family="AvenirNextCondensed-DemiBold" font-weight="bold" font-size="25.0" fill="#324763" transform="matrix(1.00, 0.00, -0.00, -1.00, 57.3, 3.0)">R</text><text xml:space="preserve" font-family="AvenirNextCondensed-DemiBold" font-weight="bold" font-size="25.0" fill="#324763" transform="matrix(1.00, 0.00, -0.00, -1.00, 70.1, 3.0)"> </text><text xml:space="preserve" font-family="AvenirNextCondensed-DemiBold" font-weight="bold" font-size="25.0" fill="#324763" transform="matrix(1.00, 0.00, -0.00, -1.00, 75.0, 3.0)">S</text><text xml:space="preserve" font-family="AvenirNextCondensed-DemiBold" font-weight="bold" font-size="25.0" fill="#324763" transform="matrix(1.00, 0.00, -0.00, -1.00, 86.2, 3.0)">U</text><text xml:space="preserve" font-family="AvenirNextCondensed-DemiBold" font-weight="bold" font-size="25.0" fill="#324763" transform="matrix(1.00, 0.00, -0.00, -1.00, 100.4, 3.0)">P</text><text xml:space="preserve" font-family="AvenirNextCondensed-DemiBold" font-weight="bold" font-size="25.0" fill="#324763" transform="matrix(1.00, 0.00, -0.00, -1.00, 112.7, 3.0)">P</text><text xml:space="preserve" font-family="AvenirNextCondensed-DemiBold" font-weight="bold" font-size="25.0" fill="#324763" transform="matrix(1.00, 0.00, -0.00, -1.00, 125.1, 3.0)">L</text><text xml:space="preserve" font-family="AvenirNextCondensed-DemiBold" font-weight="bold" font-size="25.0" fill="#324763" transform="matrix(1.00, 0.00, -0.00, -1.00, 134.1, 3.0)">Y</text></g></svg>