<?xml version="1.0" encoding="UTF-8" standalone="no"?><svg xmlns="http://www.w3.org/2000/svg" xmlns:xlink="http://www.w3.org/1999/xlink" clip-rule="evenodd" stroke-miterlimit="4.00" viewBox="0 0 142 185"><desc>SVG generated by Keynote</desc><defs></defs><g transform="matrix(1.00, 0.00, -0.00, -1.00, 0.0, 185.0)"><image xlink:href="../../07EE9D25-BB77-436D-9C32-9B21BD4CCDC1/assets/EB47F469E89CC5C22E99E2B92B6B2833.png" width="129.00" height="158.00" transform="matrix(1.00, 0.00, -0.00, -1.00, 7.0, 184.0)"></image><g><clipPath id="clip-2838"><path d="M 2.0 7.0 L 141.0 7.0 L 141.0 184.0 L 2.0 184.0 Z M 2.0 7.0 "></path></clipPath><g clip-path="url(#clip-2838)"><path d="M -305.0 176.0 C -305.0 179.3 -302.3 182.0 -299.0 182.0 L -191.0 182.0 C -187.7 182.0 -185.0 179.3 -185.0 176.0 L -185.0 38.0 C -185.0 34.7 -187.7 32.0 -191.0 32.0 L -299.0 32.0 C -302.3 32.0 -305.0 34.7 -305.0 38.0 L -305.0 176.0 Z M -305.0 176.0 " fill="#FFFFFF"></path></g></g><g><clipPath id="clip-2839"><path d="M 11.0 176.0 C 11.0 179.3 13.7 182.0 17.0 182.0 L 125.0 182.0 C 128.3 182.0 131.0 179.3 131.0 176.0 L 131.0 38.0 C 131.0 34.7 128.3 32.0 125.0 32.0 L 17.0 32.0 C 13.7 32.0 11.0 34.7 11.0 38.0 L 11.0 176.0 Z M 11.0 176.0 "></path></clipPath><g clip-path="url(#clip-2839)"><g><clipPath id="clip-2840"><path d="M 2.0 2.0 L 141.0 2.0 L 141.0 184.0 L 2.0 184.0 Z M 2.0 2.0 "></path></clipPath><g clip-path="url(#clip-2840)"><g><image xlink:href="../../86C23161-7833-4B5D-970E-9F70E31A29CD/assets/CDD4FF2E63A3344F9A4D76899336AC4A.png" width="120.00" height="150.00" transform="matrix(1.00, 0.00, -0.00, -1.00, 11.0, 182.0)"></image><g><clipPath id="clip-2841"><path d="M 11.0 32.0 L 131.0 32.0 L 131.0 182.0 L 11.0 182.0 Z M 11.0 32.0 "></path></clipPath><g clip-path="url(#clip-2841)"><path d="M -305.0 176.0 C -305.0 179.3 -302.3 182.0 -299.0 182.0 L -191.0 182.0 C -187.7 182.0 -185.0 179.3 -185.0 176.0 L -185.0 38.0 C -185.0 34.7 -187.7 32.0 -191.0 32.0 L -299.0 32.0 C -302.3 32.0 -305.0 34.7 -305.0 38.0 L -305.0 176.0 Z M -305.0 176.0 " fill="#FFFFFF"></path></g></g><g><clipPath id="clip-2842"><path d="M 11.0 32.0 L 131.0 32.0 L 131.0 182.0 L 11.0 182.0 Z M 11.0 32.0 "></path></clipPath><g clip-path="url(#clip-2842)"><path d="M 6.0 187.0 L 136.0 187.0 L 136.0 27.0 L 6.0 27.0 Z M 6.0 187.0 " fill="#FFE291"></path><image xlink:href="../../4CB14B03-340A-4341-8442-49BC340847BB/assets/CFAE94D3DE146C967986E2594A2C27D3.png" width="295.00" height="249.00" transform="matrix(0.29, 0.00, -0.00, -0.29, 31.0, 148.0)"></image></g></g><image xlink:href="../../4CB14B03-340A-4341-8442-49BC340847BB/assets/B28F6707EBB20E85E68686A3F4BF1B52.png" width="120.00" height="31.00" transform="matrix(1.00, 0.00, -0.00, -1.00, 11.0, 83.0)"></image><g><clipPath id="clip-2843"><path d="M 11.0 36.0 L 131.0 36.0 L 131.0 91.0 L 11.0 91.0 Z M 11.0 36.0 "></path></clipPath><g clip-path="url(#clip-2843)"><path d="M -293.0 78.0 L -173.0 78.0 L -173.0 53.0 L -293.0 53.0 L -293.0 78.0 Z M -293.0 78.0 " fill="#FFFFFF"></path></g></g><g><clipPath id="clip-2844"><path d="M 11.0 78.0 L 131.0 78.0 L 131.0 53.0 L 11.0 53.0 L 11.0 78.0 Z M 11.0 78.0 "></path></clipPath><g clip-path="url(#clip-2844)"><g><clipPath id="clip-2845"><path d="M 11.0 32.0 L 131.0 32.0 L 131.0 182.0 L 11.0 182.0 Z M 11.0 32.0 "></path></clipPath><g clip-path="url(#clip-2845)"><path d="M 6.0 83.0 L 136.0 83.0 L 136.0 48.0 L 6.0 48.0 Z M 6.0 83.0 " fill="#D7BD71"></path></g></g></g></g><image xlink:href="../../4CB14B03-340A-4341-8442-49BC340847BB/assets/5930CBD9E11EDD7FE1FD828CB4131200.png" width="18.00" height="20.00" transform="matrix(1.00, 0.00, -0.00, -1.00, 105.0, 176.0)"></image><g><clipPath id="clip-2846"><path d="M 99.0 148.0 L 131.0 148.0 L 131.0 182.0 L 99.0 182.0 Z M 99.0 148.0 "></path></clipPath><g clip-path="url(#clip-2846)"><image xlink:href="../../4CB14B03-340A-4341-8442-49BC340847BB/assets/E62ADDD91978E5B0F6496E51F04F3C9B.png" width="1377.00" height="1453.00" transform="matrix(0.01, 0.00, -0.00, -0.01, 42.0, 175.0)"></image></g></g><g><clipPath id="clip-2847"><path d="M 11.0 32.0 L 131.0 32.0 L 131.0 182.0 L 11.0 182.0 Z M 11.0 32.0 "></path></clipPath><g clip-path="url(#clip-2847)"><image xlink:href="../../4CB14B03-340A-4341-8442-49BC340847BB/assets/E62ADDD91978E5B0F6496E51F04F3C9B.png" width="1377.00" height="1453.00" transform="matrix(0.01, 0.00, -0.00, -0.01, 106.0, 175.0)"></image><text xml:space="preserve" font-family="AvenirNextCondensed-Medium" font-size="15.0" fill="#000000" transform="matrix(1.00, 0.00, -0.00, -1.00, 44.5, 60.0)">A</text><text xml:space="preserve" font-family="AvenirNextCondensed-Medium" font-size="15.0" fill="#000000" transform="matrix(1.00, 0.00, -0.00, -1.00, 51.8, 60.0)">t</text><text xml:space="preserve" font-family="AvenirNextCondensed-Medium" font-size="15.0" fill="#000000" transform="matrix(1.00, 0.00, -0.00, -1.00, 55.8, 60.0)">h</text><text xml:space="preserve" font-family="AvenirNextCondensed-Medium" font-size="15.0" fill="#000000" transform="matrix(1.00, 0.00, -0.00, -1.00, 63.0, 60.0)">l</text><text xml:space="preserve" font-family="AvenirNextCondensed-Medium" font-size="15.0" fill="#000000" transform="matrix(1.00, 0.00, -0.00, -1.00, 66.5, 60.0)">o</text><text xml:space="preserve" font-family="AvenirNextCondensed-Medium" font-size="15.0" fill="#000000" transform="matrix(1.00, 0.00, -0.00, -1.00, 73.3, 60.0)">n</text><text xml:space="preserve" font-family="AvenirNextCondensed-Medium" font-size="15.0" fill="#000000" transform="matrix(1.00, 0.00, -0.00, -1.00, 80.6, 60.0)"> </text><text xml:space="preserve" font-family="AvenirNextCondensed-Medium" font-size="15.0" fill="#000000" transform="matrix(1.00, 0.00, -0.00, -1.00, 83.2, 60.0)">X</text><text xml:space="preserve" font-family="AvenirNextCondensed-Medium" font-size="15.0" fill="#000000" transform="matrix(1.00, 0.00, -0.00, -1.00, 90.3, 60.0)">4</text><text xml:space="preserve" font-family="AvenirNextCondensed-Medium" font-size="15.0" fill="#000000" transform="matrix(1.00, 0.00, -0.00, -1.00, 60.2, 37.0)">$</text><text xml:space="preserve" font-family="AvenirNextCondensed-Medium" font-size="15.0" fill="#000000" transform="matrix(1.00, 0.00, -0.00, -1.00, 67.4, 37.0)">8</text><text xml:space="preserve" font-family="AvenirNextCondensed-Medium" font-size="15.0" fill="#000000" transform="matrix(1.00, 0.00, -0.00, -1.00, 74.6, 37.0)">5</text><text xml:space="preserve" font-family="AvenirNextCondensed-Medium" font-size="26.0" fill="#000000" transform="matrix(1.00, 0.00, -0.00, -1.00, 19.0, 156.0)">6</text><text xml:space="preserve" font-family="AvenirNextCondensed-Medium" font-size="26.0" fill="#000000" transform="matrix(1.00, 0.00, -0.00, -1.00, 31.5, 156.0)">8</text></g></g></g></g></g></g></g><g><clipPath id="clip-2848"><path d="M 2.0 2.0 L 141.0 2.0 L 141.0 184.0 L 2.0 184.0 Z M 2.0 2.0 "></path></clipPath><g clip-path="url(#clip-2848)"><path d="M 0.0 0.0 " fill="none" stroke="#969696" stroke-width="1.00" stroke-miterlimit="0.00" transform="matrix(1.00, 0.00, 0.00, -1.00, 11.5, 32.9)"></path></g></g><g><clipPath id="clip-2849"><path d="M 71.1 34.1 L 16.5 34.1 L 12.1 59.3 L 2.5 59.3 L 8.5 3.4 L 71.1 3.4 L 133.8 3.4 L 139.7 59.3 L 130.2 59.3 L 125.8 34.1 L 71.1 34.1 Z M 71.1 34.1 "></path></clipPath><g clip-path="url(#clip-2849)"><g><clipPath id="clip-2850"><path d="M 2.0 2.0 L 141.0 2.0 L 141.0 60.5 L 2.0 60.5 Z M 2.0 2.0 "></path></clipPath><g clip-path="url(#clip-2850)"><path d="M -2.5 64.3 L 144.7 64.3 L 144.7 -1.6 L -2.5 -1.6 Z M -2.5 64.3 " fill="#3D3737"></path></g></g></g></g><g><clipPath id="clip-2851"><path d="M 2.0 2.0 L 141.0 2.0 L 141.0 60.5 L 2.0 60.5 Z M 2.0 2.0 "></path></clipPath><g clip-path="url(#clip-2851)"><path d="M 68.6 25.2 L 14.0 25.2 L 9.5 0.0 L 0.0 0.0 L 6.0 55.9 L 68.6 55.9 L 131.2 55.9 L 137.2 0.0 L 127.7 0.0 L 123.2 25.2 L 68.6 25.2 Z M 68.6 25.2 " fill="none" stroke="#CACACA" stroke-width="1.00" stroke-miterlimit="0.00" transform="matrix(1.00, 0.00, 0.00, -1.00, 2.5, 59.3)"></path><text xml:space="preserve" font-family="AvenirNextCondensed-Bold" font-weight="bold" font-size="13.0" fill="#ABABAB" transform="matrix(1.00, 0.00, -0.00, -1.00, 61.7, 16.1)">C</text><text xml:space="preserve" font-family="AvenirNextCondensed-Bold" font-weight="bold" font-size="13.0" fill="#ABABAB" transform="matrix(1.00, 0.00, -0.00, -1.00, 68.4, 16.1)">P</text><text xml:space="preserve" font-family="AvenirNextCondensed-Bold" font-weight="bold" font-size="13.0" fill="#ABABAB" transform="matrix(1.00, 0.00, -0.00, -1.00, 75.1, 16.1)">U</text></g></g></g></svg>