<?xml version="1.0" encoding="UTF-8" standalone="no"?><svg xmlns="http://www.w3.org/2000/svg" xmlns:xlink="http://www.w3.org/1999/xlink" clip-rule="evenodd" stroke-miterlimit="4.00" viewBox="0 0 130 161"><desc>SVG generated by Keynote</desc><defs></defs><g transform="matrix(1.00, 0.00, -0.00, -1.00, 0.0, 161.0)"><image xlink:href="18DE1BD482873673E795B15FA43E9765.png" width="128.00" height="158.00" transform="matrix(1.00, 0.00, -0.00, -1.00, 1.0, 159.0)"></image><g><clipPath id="clip-603"><path d="M 1.0 1.0 L 129.0 1.0 L 129.0 159.0 L 1.0 159.0 Z M 1.0 1.0 "></path></clipPath><g clip-path="url(#clip-603)"><path d="M -311.0 151.0 C -311.0 154.3 -308.3 157.0 -305.0 157.0 L -197.0 157.0 C -193.7 157.0 -191.0 154.3 -191.0 151.0 L -191.0 13.0 C -191.0 9.7 -193.7 7.0 -197.0 7.0 L -305.0 7.0 C -308.3 7.0 -311.0 9.7 -311.0 13.0 L -311.0 151.0 Z M -311.0 151.0 " fill="#FFFFFF"></path></g></g><g><clipPath id="clip-604"><path d="M 5.0 151.0 C 5.0 154.3 7.7 157.0 11.0 157.0 L 119.0 157.0 C 122.3 157.0 125.0 154.3 125.0 151.0 L 125.0 13.0 C 125.0 9.7 122.3 7.0 119.0 7.0 L 11.0 7.0 C 7.7 7.0 5.0 9.7 5.0 13.0 L 5.0 151.0 Z M 5.0 151.0 "></path></clipPath><g clip-path="url(#clip-604)"><g><clipPath id="clip-605"><path d="M 1.0 1.0 L 129.0 1.0 L 129.0 159.0 L 1.0 159.0 Z M 1.0 1.0 "></path></clipPath><g clip-path="url(#clip-605)"><g><image xlink:href="CDD4FF2E63A3344F9A4D76899336AC4A.png" width="120.00" height="150.00" transform="matrix(1.00, 0.00, -0.00, -1.00, 5.0, 157.0)"></image><g><clipPath id="clip-606"><path d="M 5.0 7.0 L 125.0 7.0 L 125.0 157.0 L 5.0 157.0 Z M 5.0 7.0 "></path></clipPath><g clip-path="url(#clip-606)"><path d="M -311.0 151.0 C -311.0 154.3 -308.3 157.0 -305.0 157.0 L -197.0 157.0 C -193.7 157.0 -191.0 154.3 -191.0 151.0 L -191.0 13.0 C -191.0 9.7 -193.7 7.0 -197.0 7.0 L -305.0 7.0 C -308.3 7.0 -311.0 9.7 -311.0 13.0 L -311.0 151.0 Z M -311.0 151.0 " fill="#FFFFFF"></path></g></g><g><clipPath id="clip-607"><path d="M 5.0 7.0 L 125.0 7.0 L 125.0 157.0 L 5.0 157.0 Z M 5.0 7.0 "></path></clipPath><g clip-path="url(#clip-607)"><path d="M 0.0 162.0 L 130.0 162.0 L 130.0 2.0 L 0.0 2.0 Z M 0.0 162.0 " fill="#FFE291"></path><image xlink:href="../../4CB14B03-340A-4341-8442-49BC340847BB/assets/CFAE94D3DE146C967986E2594A2C27D3.png" width="295.00" height="249.00" transform="matrix(0.29, 0.00, -0.00, -0.29, 25.0, 123.0)"></image></g></g><image xlink:href="../../4CB14B03-340A-4341-8442-49BC340847BB/assets/B28F6707EBB20E85E68686A3F4BF1B52.png" width="120.00" height="31.00" transform="matrix(1.00, 0.00, -0.00, -1.00, 5.0, 58.0)"></image><g><clipPath id="clip-608"><path d="M 5.0 11.0 L 125.0 11.0 L 125.0 66.0 L 5.0 66.0 Z M 5.0 11.0 "></path></clipPath><g clip-path="url(#clip-608)"><path d="M -299.0 53.0 L -179.0 53.0 L -179.0 28.0 L -299.0 28.0 L -299.0 53.0 Z M -299.0 53.0 " fill="#FFFFFF"></path></g></g><g><clipPath id="clip-609"><path d="M 5.0 53.0 L 125.0 53.0 L 125.0 28.0 L 5.0 28.0 L 5.0 53.0 Z M 5.0 53.0 "></path></clipPath><g clip-path="url(#clip-609)"><g><clipPath id="clip-610"><path d="M 5.0 7.0 L 125.0 7.0 L 125.0 157.0 L 5.0 157.0 Z M 5.0 7.0 "></path></clipPath><g clip-path="url(#clip-610)"><path d="M 0.0 58.0 L 130.0 58.0 L 130.0 23.0 L 0.0 23.0 Z M 0.0 58.0 " fill="#D7BD71"></path></g></g></g></g><image xlink:href="../../4CB14B03-340A-4341-8442-49BC340847BB/assets/5930CBD9E11EDD7FE1FD828CB4131200.png" width="18.00" height="20.00" transform="matrix(1.00, 0.00, -0.00, -1.00, 99.0, 151.0)"></image><g><clipPath id="clip-611"><path d="M 93.0 123.0 L 125.0 123.0 L 125.0 157.0 L 93.0 157.0 Z M 93.0 123.0 "></path></clipPath><g clip-path="url(#clip-611)"><image xlink:href="../../4CB14B03-340A-4341-8442-49BC340847BB/assets/E62ADDD91978E5B0F6496E51F04F3C9B.png" width="1377.00" height="1453.00" transform="matrix(0.01, 0.00, -0.00, -0.01, 36.0, 150.0)"></image></g></g><g><clipPath id="clip-612"><path d="M 5.0 7.0 L 125.0 7.0 L 125.0 157.0 L 5.0 157.0 Z M 5.0 7.0 "></path></clipPath><g clip-path="url(#clip-612)"><image xlink:href="../../4CB14B03-340A-4341-8442-49BC340847BB/assets/E62ADDD91978E5B0F6496E51F04F3C9B.png" width="1377.00" height="1453.00" transform="matrix(0.01, 0.00, -0.00, -0.01, 100.0, 150.0)"></image><text xml:space="preserve" font-family="AvenirNextCondensed-Medium" font-size="15.0" fill="#000000" transform="matrix(1.00, 0.00, -0.00, -1.00, 38.5, 35.0)">A</text><text xml:space="preserve" font-family="AvenirNextCondensed-Medium" font-size="15.0" fill="#000000" transform="matrix(1.00, 0.00, -0.00, -1.00, 45.8, 35.0)">t</text><text xml:space="preserve" font-family="AvenirNextCondensed-Medium" font-size="15.0" fill="#000000" transform="matrix(1.00, 0.00, -0.00, -1.00, 49.8, 35.0)">h</text><text xml:space="preserve" font-family="AvenirNextCondensed-Medium" font-size="15.0" fill="#000000" transform="matrix(1.00, 0.00, -0.00, -1.00, 57.0, 35.0)">l</text><text xml:space="preserve" font-family="AvenirNextCondensed-Medium" font-size="15.0" fill="#000000" transform="matrix(1.00, 0.00, -0.00, -1.00, 60.5, 35.0)">o</text><text xml:space="preserve" font-family="AvenirNextCondensed-Medium" font-size="15.0" fill="#000000" transform="matrix(1.00, 0.00, -0.00, -1.00, 67.3, 35.0)">n</text><text xml:space="preserve" font-family="AvenirNextCondensed-Medium" font-size="15.0" fill="#000000" transform="matrix(1.00, 0.00, -0.00, -1.00, 74.6, 35.0)"> </text><text xml:space="preserve" font-family="AvenirNextCondensed-Medium" font-size="15.0" fill="#000000" transform="matrix(1.00, 0.00, -0.00, -1.00, 77.2, 35.0)">X</text><text xml:space="preserve" font-family="AvenirNextCondensed-Medium" font-size="15.0" fill="#000000" transform="matrix(1.00, 0.00, -0.00, -1.00, 84.3, 35.0)">4</text><text xml:space="preserve" font-family="AvenirNextCondensed-Medium" font-size="15.0" fill="#000000" transform="matrix(1.00, 0.00, -0.00, -1.00, 54.2, 12.0)">$</text><text xml:space="preserve" font-family="AvenirNextCondensed-Medium" font-size="15.0" fill="#000000" transform="matrix(1.00, 0.00, -0.00, -1.00, 61.4, 12.0)">8</text><text xml:space="preserve" font-family="AvenirNextCondensed-Medium" font-size="15.0" fill="#000000" transform="matrix(1.00, 0.00, -0.00, -1.00, 68.6, 12.0)">5</text><text xml:space="preserve" font-family="AvenirNextCondensed-Medium" font-size="26.0" fill="#000000" transform="matrix(1.00, 0.00, -0.00, -1.00, 13.0, 131.0)">6</text><text xml:space="preserve" font-family="AvenirNextCondensed-Medium" font-size="26.0" fill="#000000" transform="matrix(1.00, 0.00, -0.00, -1.00, 25.5, 131.0)">8</text></g></g></g></g></g></g></g><g><clipPath id="clip-613"><path d="M 1.0 1.0 L 129.0 1.0 L 129.0 159.0 L 1.0 159.0 Z M 1.0 1.0 "></path></clipPath><g clip-path="url(#clip-613)"><path d="M 0.0 0.0 " fill="none" stroke="#969696" stroke-width="1.00" stroke-miterlimit="0.00" transform="matrix(1.00, 0.00, 0.00, -1.00, 5.5, 7.9)"></path></g></g></g></svg>