<?xml version="1.0" encoding="UTF-8" standalone="no"?><svg xmlns="http://www.w3.org/2000/svg" xmlns:xlink="http://www.w3.org/1999/xlink" clip-rule="evenodd" stroke-miterlimit="4.00" viewBox="0 0 407 81"><desc>SVG generated by Keynote</desc><defs></defs><g transform="matrix(1.00, 0.00, -0.00, -1.00, 0.0, 81.0)"><path d="M 1.7 79.9 L 405.0 79.9 L 405.0 1.1 L 1.7 1.1 Z M 1.7 79.9 " fill="#D6D2CB"></path><g><clipPath id="clip-627"><path d="M -0.4 1.1 L 407.2 1.1 L 407.2 79.9 L -0.4 79.9 Z M -0.4 1.1 "></path></clipPath><g clip-path="url(#clip-627)"><text xml:space="preserve" font-family="Avenir-Heavy" font-weight="bold" font-size="18.0" fill="#FEFFFE" transform="matrix(1.00, 0.00, -0.00, -1.00, 145.0, 34.0)">F</text><text xml:space="preserve" font-family="Avenir-Heavy" font-weight="bold" font-size="18.0" fill="#FEFFFE" transform="matrix(1.00, 0.00, -0.00, -1.00, 155.3, 34.0)">I</text><text xml:space="preserve" font-family="Avenir-Heavy" font-weight="bold" font-size="18.0" fill="#FEFFFE" transform="matrix(1.00, 0.00, -0.00, -1.00, 160.3, 34.0)">N</text><text xml:space="preserve" font-family="Avenir-Heavy" font-weight="bold" font-size="18.0" fill="#FEFFFE" transform="matrix(1.00, 0.00, -0.00, -1.00, 174.7, 34.0)">I</text><text xml:space="preserve" font-family="Avenir-Heavy" font-weight="bold" font-size="18.0" fill="#FEFFFE" transform="matrix(1.00, 0.00, -0.00, -1.00, 179.7, 34.0)">S</text><text xml:space="preserve" font-family="Avenir-Heavy" font-weight="bold" font-size="18.0" fill="#FEFFFE" transform="matrix(1.00, 0.00, -0.00, -1.00, 190.0, 34.0)">H</text><text xml:space="preserve" font-family="Avenir-Heavy" font-weight="bold" font-size="18.0" fill="#FEFFFE" transform="matrix(1.00, 0.00, -0.00, -1.00, 203.3, 34.0)"> </text><text xml:space="preserve" font-family="Avenir-Heavy" font-weight="bold" font-size="18.0" fill="#FEFFFE" transform="matrix(1.00, 0.00, -0.00, -1.00, 208.7, 34.0)">B</text><text xml:space="preserve" font-family="Avenir-Heavy" font-weight="bold" font-size="18.0" fill="#FEFFFE" transform="matrix(1.00, 0.00, -0.00, -1.00, 220.3, 34.0)">U</text><text xml:space="preserve" font-family="Avenir-Heavy" font-weight="bold" font-size="18.0" fill="#FEFFFE" transform="matrix(1.00, 0.00, -0.00, -1.00, 233.3, 34.0)">I</text><text xml:space="preserve" font-family="Avenir-Heavy" font-weight="bold" font-size="18.0" fill="#FEFFFE" transform="matrix(1.00, 0.00, -0.00, -1.00, 238.3, 34.0)">L</text><text xml:space="preserve" font-family="Avenir-Heavy" font-weight="bold" font-size="18.0" fill="#FEFFFE" transform="matrix(1.00, 0.00, -0.00, -1.00, 247.7, 34.0)">D</text></g></g></g></svg>