<?xml version="1.0" encoding="UTF-8" standalone="no"?><svg xmlns="http://www.w3.org/2000/svg" xmlns:xlink="http://www.w3.org/1999/xlink" clip-rule="evenodd" stroke-miterlimit="4.00" viewBox="0 0 292 128"><desc>SVG generated by Keynote</desc><defs></defs><g transform="matrix(1.00, 0.00, -0.00, -1.00, 0.0, 128.0)"><image xlink:href="../../4CB14B03-340A-4341-8442-49BC340847BB/assets/87FB1FCC1B5BBB7B2842497D2218EDF8.png" width="288.00" height="125.00" transform="matrix(1.00, 0.00, -0.00, -1.00, 2.0, 127.0)"></image><g><clipPath id="clip-2559"><path d="M 2.0 2.0 L 290.0 2.0 L 290.0 127.0 L 2.0 127.0 Z M 2.0 2.0 "></path></clipPath><g clip-path="url(#clip-2559)"><g><g><clipPath id="clip-2560"><path d="M 6.7 99.5 L 285.3 99.5 L 285.3 9.1 L 6.7 9.1 L 6.7 99.5 Z M 6.7 99.5 "></path></clipPath><g clip-path="url(#clip-2560)"><g><clipPath id="clip-2561"><path d="M 4.4 9.1 L 285.3 9.1 L 285.3 128.2 L 4.4 128.2 Z M 4.4 9.1 "></path></clipPath><g clip-path="url(#clip-2561)"><path d="M 0.8 105.4 L 291.2 105.4 L 291.2 3.2 L 0.8 3.2 Z M 0.8 105.4 " fill="#FFFFFF"></path></g></g></g></g><g><clipPath id="clip-2562"><path d="M 6.7 124.6 L 260.3 124.6 L 285.3 99.5 L 6.7 99.5 L 6.7 124.6 Z M 6.7 124.6 "></path></clipPath><g clip-path="url(#clip-2562)"><g><clipPath id="clip-2563"><path d="M 4.4 9.1 L 285.3 9.1 L 285.3 128.2 L 4.4 128.2 Z M 4.4 9.1 "></path></clipPath><g clip-path="url(#clip-2563)"><path d="M 0.8 130.5 L 291.2 130.5 L 291.2 93.6 L 0.8 93.6 Z M 0.8 130.5 " fill="#817B83"></path></g></g></g></g><g><clipPath id="clip-2564"><path d="M 4.4 9.1 L 285.3 9.1 L 285.3 128.2 L 4.4 128.2 Z M 4.4 9.1 "></path></clipPath><g clip-path="url(#clip-2564)"><text xml:space="preserve" font-family="Avenir-Heavy" font-weight="bold" font-size="16.0" fill="#FEFFFF" transform="matrix(1.18, 0.00, -0.00, -1.18, 13.4, 105.8)">P</text><text xml:space="preserve" font-family="Avenir-Heavy" font-weight="bold" font-size="16.0" fill="#FEFFFF" transform="matrix(1.18, 0.00, -0.00, -1.18, 26.9, 105.8)">C</text><text xml:space="preserve" font-family="Avenir-Heavy" font-weight="bold" font-size="16.0" fill="#FEFFFF" transform="matrix(1.18, 0.00, -0.00, -1.18, 41.8, 105.8)"> </text><text xml:space="preserve" font-family="Avenir-Heavy" font-weight="bold" font-size="16.0" fill="#FEFFFF" transform="matrix(1.18, 0.00, -0.00, -1.18, 49.4, 105.8)">S</text><text xml:space="preserve" font-family="Avenir-Heavy" font-weight="bold" font-size="16.0" fill="#FEFFFF" transform="matrix(1.18, 0.00, -0.00, -1.18, 62.2, 105.8)">T</text><text xml:space="preserve" font-family="Avenir-Heavy" font-weight="bold" font-size="16.0" fill="#FEFFFF" transform="matrix(1.18, 0.00, -0.00, -1.18, 73.3, 105.8)">A</text><text xml:space="preserve" font-family="Avenir-Heavy" font-weight="bold" font-size="16.0" fill="#FEFFFF" transform="matrix(1.18, 0.00, -0.00, -1.18, 87.2, 105.8)">T</text><text xml:space="preserve" font-family="AvenirNextCondensed-Medium" font-size="16.0" fill="#000000" transform="matrix(1.18, 0.00, -0.00, -1.18, 13.4, 73.5)">P</text><text xml:space="preserve" font-family="AvenirNextCondensed-Medium" font-size="16.0" fill="#000000" transform="matrix(1.18, 0.00, -0.00, -1.18, 21.6, 73.5)">e</text><text xml:space="preserve" font-family="AvenirNextCondensed-Medium" font-size="16.0" fill="#000000" transform="matrix(1.18, 0.00, -0.00, -1.18, 29.9, 73.5)">r</text><text xml:space="preserve" font-family="AvenirNextCondensed-Medium" font-size="16.0" fill="#000000" transform="matrix(1.18, 0.00, -0.00, -1.18, 35.2, 73.5)">f</text><text xml:space="preserve" font-family="AvenirNextCondensed-Medium" font-size="16.0" fill="#000000" transform="matrix(1.18, 0.00, -0.00, -1.18, 40.0, 73.5)">o</text><text xml:space="preserve" font-family="AvenirNextCondensed-Medium" font-size="16.0" fill="#000000" transform="matrix(1.18, 0.00, -0.00, -1.18, 48.5, 73.5)">r</text><text xml:space="preserve" font-family="AvenirNextCondensed-Medium" font-size="16.0" fill="#000000" transform="matrix(1.18, 0.00, -0.00, -1.18, 53.9, 73.5)">m</text><text xml:space="preserve" font-family="AvenirNextCondensed-Medium" font-size="16.0" fill="#000000" transform="matrix(1.18, 0.00, -0.00, -1.18, 67.6, 73.5)">a</text><text xml:space="preserve" font-family="AvenirNextCondensed-Medium" font-size="16.0" fill="#000000" transform="matrix(1.18, 0.00, -0.00, -1.18, 75.4, 73.5)">n</text><text xml:space="preserve" font-family="AvenirNextCondensed-Medium" font-size="16.0" fill="#000000" transform="matrix(1.18, 0.00, -0.00, -1.18, 84.5, 73.5)">c</text><text xml:space="preserve" font-family="AvenirNextCondensed-Medium" font-size="16.0" fill="#000000" transform="matrix(1.18, 0.00, -0.00, -1.18, 90.9, 73.5)">e</text><text xml:space="preserve" font-family="AvenirNextCondensed-Medium" font-size="16.0" fill="#000000" transform="matrix(1.18, 0.00, -0.00, -1.18, 13.4, 28.2)">P</text><text xml:space="preserve" font-family="AvenirNextCondensed-Medium" font-size="16.0" fill="#000000" transform="matrix(1.18, 0.00, -0.00, -1.18, 21.9, 28.2)">r</text><text xml:space="preserve" font-family="AvenirNextCondensed-Medium" font-size="16.0" fill="#000000" transform="matrix(1.18, 0.00, -0.00, -1.18, 27.2, 28.2)">i</text><text xml:space="preserve" font-family="AvenirNextCondensed-Medium" font-size="16.0" fill="#000000" transform="matrix(1.18, 0.00, -0.00, -1.18, 31.6, 28.2)">c</text><text xml:space="preserve" font-family="AvenirNextCondensed-Medium" font-size="16.0" fill="#000000" transform="matrix(1.18, 0.00, -0.00, -1.18, 38.1, 28.2)">e</text></g></g></g></g></g></g></svg>