<?xml version="1.0" encoding="UTF-8" standalone="no"?><svg xmlns="http://www.w3.org/2000/svg" xmlns:xlink="http://www.w3.org/1999/xlink" clip-rule="evenodd" stroke-miterlimit="4.00" viewBox="0 0 130 161"><desc>SVG generated by Keynote</desc><defs></defs><g transform="matrix(1.00, 0.00, -0.00, -1.00, 0.0, 161.0)"><image xlink:href="../../86C23161-7833-4B5D-970E-9F70E31A29CD/assets/18DE1BD482873673E795B15FA43E9765.png" width="128.00" height="158.00" transform="matrix(1.00, 0.00, -0.00, -1.00, 1.0, 160.0)"></image><g><clipPath id="clip-2503"><path d="M 1.0 2.0 L 129.0 2.0 L 129.0 160.0 L 1.0 160.0 Z M 1.0 2.0 "></path></clipPath><g clip-path="url(#clip-2503)"><path d="M -311.0 152.0 C -311.0 155.3 -308.3 158.0 -305.0 158.0 L -197.0 158.0 C -193.7 158.0 -191.0 155.3 -191.0 152.0 L -191.0 14.0 C -191.0 10.7 -193.7 8.0 -197.0 8.0 L -305.0 8.0 C -308.3 8.0 -311.0 10.7 -311.0 14.0 L -311.0 152.0 Z M -311.0 152.0 " fill="#FFFFFF"></path></g></g><g><clipPath id="clip-2504"><path d="M 5.0 152.0 C 5.0 155.3 7.7 158.0 11.0 158.0 L 119.0 158.0 C 122.3 158.0 125.0 155.3 125.0 152.0 L 125.0 14.0 C 125.0 10.7 122.3 8.0 119.0 8.0 L 11.0 8.0 C 7.7 8.0 5.0 10.7 5.0 14.0 L 5.0 152.0 Z M 5.0 152.0 "></path></clipPath><g clip-path="url(#clip-2504)"><g><clipPath id="clip-2505"><path d="M 1.0 2.0 L 129.0 2.0 L 129.0 160.0 L 1.0 160.0 Z M 1.0 2.0 "></path></clipPath><g clip-path="url(#clip-2505)"><g><image xlink:href="../../86C23161-7833-4B5D-970E-9F70E31A29CD/assets/CDD4FF2E63A3344F9A4D76899336AC4A.png" width="120.00" height="150.00" transform="matrix(1.00, 0.00, -0.00, -1.00, 5.0, 158.0)"></image><g><clipPath id="clip-2506"><path d="M 5.0 8.0 L 125.0 8.0 L 125.0 158.0 L 5.0 158.0 Z M 5.0 8.0 "></path></clipPath><g clip-path="url(#clip-2506)"><path d="M -311.0 152.0 C -311.0 155.3 -308.3 158.0 -305.0 158.0 L -197.0 158.0 C -193.7 158.0 -191.0 155.3 -191.0 152.0 L -191.0 14.0 C -191.0 10.7 -193.7 8.0 -197.0 8.0 L -305.0 8.0 C -308.3 8.0 -311.0 10.7 -311.0 14.0 L -311.0 152.0 Z M -311.0 152.0 " fill="#FFFFFF"></path></g></g><g><clipPath id="clip-2507"><path d="M 5.0 8.0 L 125.0 8.0 L 125.0 158.0 L 5.0 158.0 Z M 5.0 8.0 "></path></clipPath><g clip-path="url(#clip-2507)"><path d="M 0.0 163.0 L 130.0 163.0 L 130.0 3.0 L 0.0 3.0 Z M 0.0 163.0 " fill="#FFE291"></path><image xlink:href="../../86C23161-7833-4B5D-970E-9F70E31A29CD/assets/1E338099411E42E27976DDB1D129A73F.png" width="600.00" height="480.00" transform="matrix(0.20, 0.00, -0.00, -0.20, 3.0, 137.0)"></image></g></g><image xlink:href="../../4CB14B03-340A-4341-8442-49BC340847BB/assets/B28F6707EBB20E85E68686A3F4BF1B52.png" width="120.00" height="31.00" transform="matrix(1.00, 0.00, -0.00, -1.00, 5.0, 59.0)"></image><g><clipPath id="clip-2508"><path d="M 5.0 12.0 L 125.0 12.0 L 125.0 67.0 L 5.0 67.0 Z M 5.0 12.0 "></path></clipPath><g clip-path="url(#clip-2508)"><path d="M -299.0 54.0 L -179.0 54.0 L -179.0 29.0 L -299.0 29.0 L -299.0 54.0 Z M -299.0 54.0 " fill="#FFFFFF"></path></g></g><g><clipPath id="clip-2509"><path d="M 5.0 54.0 L 125.0 54.0 L 125.0 29.0 L 5.0 29.0 L 5.0 54.0 Z M 5.0 54.0 "></path></clipPath><g clip-path="url(#clip-2509)"><g><clipPath id="clip-2510"><path d="M 5.0 8.0 L 125.0 8.0 L 125.0 158.0 L 5.0 158.0 Z M 5.0 8.0 "></path></clipPath><g clip-path="url(#clip-2510)"><path d="M 0.0 59.0 L 130.0 59.0 L 130.0 24.0 L 0.0 24.0 Z M 0.0 59.0 " fill="#D7BD71"></path></g></g></g></g><image xlink:href="../../86C23161-7833-4B5D-970E-9F70E31A29CD/assets/82BB36C39920A6685B1B7C7CCB8F98E6.png" width="33.00" height="39.00" transform="matrix(1.00, 0.00, -0.00, -1.00, 92.0, 158.0)"></image><g><clipPath id="clip-2511"><path d="M 86.0 111.0 L 125.0 111.0 L 125.0 158.0 L 86.0 158.0 Z M 86.0 111.0 "></path></clipPath><g clip-path="url(#clip-2511)"><image xlink:href="../../86C23161-7833-4B5D-970E-9F70E31A29CD/assets/66F00A54011FCB86A3A02996CEFE1DB0.png" width="1344.00" height="1600.00" transform="matrix(0.02, 0.00, -0.00, -0.02, -3.0, 158.0)"></image></g></g><g><clipPath id="clip-2512"><path d="M 5.0 8.0 L 125.0 8.0 L 125.0 158.0 L 5.0 158.0 Z M 5.0 8.0 "></path></clipPath><g clip-path="url(#clip-2512)"><image xlink:href="../../86C23161-7833-4B5D-970E-9F70E31A29CD/assets/66F00A54011FCB86A3A02996CEFE1DB0.png" width="1344.00" height="1600.00" transform="matrix(0.02, 0.00, -0.00, -0.02, 93.0, 158.0)"></image><text xml:space="preserve" font-family="AvenirNextCondensed-Medium" font-size="15.0" fill="#000000" transform="matrix(1.00, 0.00, -0.00, -1.00, 31.1, 36.0)">G</text><text xml:space="preserve" font-family="AvenirNextCondensed-Medium" font-size="15.0" fill="#000000" transform="matrix(1.00, 0.00, -0.00, -1.00, 39.2, 36.0)">a</text><text xml:space="preserve" font-family="AvenirNextCondensed-Medium" font-size="15.0" fill="#000000" transform="matrix(1.00, 0.00, -0.00, -1.00, 45.5, 36.0)">m</text><text xml:space="preserve" font-family="AvenirNextCondensed-Medium" font-size="15.0" fill="#000000" transform="matrix(1.00, 0.00, -0.00, -1.00, 56.4, 36.0)">i</text><text xml:space="preserve" font-family="AvenirNextCondensed-Medium" font-size="15.0" fill="#000000" transform="matrix(1.00, 0.00, -0.00, -1.00, 59.9, 36.0)">n</text><text xml:space="preserve" font-family="AvenirNextCondensed-Medium" font-size="15.0" fill="#000000" transform="matrix(1.00, 0.00, -0.00, -1.00, 67.1, 36.0)">g</text><text xml:space="preserve" font-family="AvenirNextCondensed-Medium" font-size="15.0" fill="#000000" transform="matrix(1.00, 0.00, -0.00, -1.00, 74.3, 36.0)"> </text><text xml:space="preserve" font-family="AvenirNextCondensed-Medium" font-size="15.0" fill="#000000" transform="matrix(1.00, 0.00, -0.00, -1.00, 77.2, 36.0)">9</text><text xml:space="preserve" font-family="AvenirNextCondensed-Medium" font-size="15.0" fill="#000000" transform="matrix(1.00, 0.00, -0.00, -1.00, 84.4, 36.0)">7</text><text xml:space="preserve" font-family="AvenirNextCondensed-Medium" font-size="15.0" fill="#000000" transform="matrix(1.00, 0.00, -0.00, -1.00, 91.6, 36.0)">0</text><text xml:space="preserve" font-family="AvenirNextCondensed-Medium" font-size="15.0" fill="#000000" transform="matrix(1.00, 0.00, -0.00, -1.00, 50.5, 13.0)">$</text><text xml:space="preserve" font-family="AvenirNextCondensed-Medium" font-size="15.0" fill="#000000" transform="matrix(1.00, 0.00, -0.00, -1.00, 57.8, 13.0)">1</text><text xml:space="preserve" font-family="AvenirNextCondensed-Medium" font-size="15.0" fill="#000000" transform="matrix(1.00, 0.00, -0.00, -1.00, 65.0, 13.0)">0</text><text xml:space="preserve" font-family="AvenirNextCondensed-Medium" font-size="15.0" fill="#000000" transform="matrix(1.00, 0.00, -0.00, -1.00, 72.2, 13.0)">0</text><text xml:space="preserve" font-family="AvenirNextCondensed-Medium" font-size="26.0" fill="#000000" transform="matrix(1.00, 0.00, -0.00, -1.00, 13.0, 130.0)">7</text><text xml:space="preserve" font-family="AvenirNextCondensed-Medium" font-size="26.0" fill="#000000" transform="matrix(1.00, 0.00, -0.00, -1.00, 25.5, 130.0)">2</text></g></g></g></g></g></g></g><g><clipPath id="clip-2513"><path d="M 1.0 2.0 L 129.0 2.0 L 129.0 160.0 L 1.0 160.0 Z M 1.0 2.0 "></path></clipPath><g clip-path="url(#clip-2513)"><path d="M 0.0 0.0 " fill="none" stroke="#969696" stroke-width="1.00" stroke-miterlimit="0.00" transform="matrix(1.00, 0.00, 0.00, -1.00, 5.5, 8.9)"></path></g></g></g></svg>