<?xml version="1.0" encoding="UTF-8" standalone="no"?><svg xmlns="http://www.w3.org/2000/svg" xmlns:xlink="http://www.w3.org/1999/xlink" clip-rule="evenodd" stroke-miterlimit="4.00" viewBox="0 0 194 15"><desc>SVG generated by Keynote</desc><defs></defs><g transform="matrix(1.00, 0.00, -0.00, -1.00, 0.0, 15.0)"><text xml:space="preserve" font-family="Avenir-Book" font-size="15.0" fill="#324763" transform="matrix(1.00, 0.00, -0.00, -1.00, 2.0, 2.0)">C</text><text xml:space="preserve" font-family="Avenir-Book" font-size="15.0" fill="#324763" transform="matrix(1.00, 0.00, -0.00, -1.00, 12.6, 2.0)">o</text><text xml:space="preserve" font-family="Avenir-Book" font-size="15.0" fill="#324763" transform="matrix(1.00, 0.00, -0.00, -1.00, 21.5, 2.0)">r</text><text xml:space="preserve" font-family="Avenir-Book" font-size="15.0" fill="#324763" transform="matrix(1.00, 0.00, -0.00, -1.00, 26.4, 2.0)">s</text><text xml:space="preserve" font-family="Avenir-Book" font-size="15.0" fill="#324763" transform="matrix(1.00, 0.00, -0.00, -1.00, 32.8, 2.0)">a</text><text xml:space="preserve" font-family="Avenir-Book" font-size="15.0" fill="#324763" transform="matrix(1.00, 0.00, -0.00, -1.00, 40.6, 2.0)">i</text><text xml:space="preserve" font-family="Avenir-Book" font-size="15.0" fill="#324763" transform="matrix(1.00, 0.00, -0.00, -1.00, 44.2, 2.0)">r</text><text xml:space="preserve" font-family="Avenir-Book" font-size="15.0" fill="#324763" transform="matrix(1.00, 0.00, -0.00, -1.00, 49.2, 2.0)"> </text><text xml:space="preserve" font-family="Avenir-Book" font-size="15.0" fill="#324763" transform="matrix(1.00, 0.00, -0.00, -1.00, 53.4, 2.0)">S</text><text xml:space="preserve" font-family="Avenir-Book" font-size="15.0" fill="#324763" transform="matrix(1.00, 0.00, -0.00, -1.00, 61.7, 2.0)">S</text><text xml:space="preserve" font-family="Avenir-Book" font-size="15.0" fill="#324763" transform="matrix(1.00, 0.00, -0.00, -1.00, 70.0, 2.0)">D</text><text xml:space="preserve" font-family="Avenir-Book" font-size="15.0" fill="#324763" transform="matrix(1.00, 0.00, -0.00, -1.00, 81.2, 2.0)"> </text><text xml:space="preserve" font-family="Avenir-Book" font-size="15.0" fill="#324763" transform="matrix(1.00, 0.00, -0.00, -1.00, 85.3, 2.0)">F</text><text xml:space="preserve" font-family="Avenir-Book" font-size="15.0" fill="#324763" transform="matrix(1.00, 0.00, -0.00, -1.00, 93.7, 2.0)">o</text><text xml:space="preserve" font-family="Avenir-Book" font-size="15.0" fill="#324763" transform="matrix(1.00, 0.00, -0.00, -1.00, 102.6, 2.0)">r</text><text xml:space="preserve" font-family="Avenir-Book" font-size="15.0" fill="#324763" transform="matrix(1.00, 0.00, -0.00, -1.00, 107.3, 2.0)">c</text><text xml:space="preserve" font-family="Avenir-Book" font-size="15.0" fill="#324763" transform="matrix(1.00, 0.00, -0.00, -1.00, 114.5, 2.0)">e</text><text xml:space="preserve" font-family="Avenir-Book" font-size="15.0" fill="#324763" transform="matrix(1.00, 0.00, -0.00, -1.00, 122.8, 2.0)"> </text><text xml:space="preserve" font-family="Avenir-Book" font-size="15.0" fill="#324763" transform="matrix(1.00, 0.00, -0.00, -1.00, 127.0, 2.0)">L</text><text xml:space="preserve" font-family="Avenir-Book" font-size="15.0" fill="#324763" transform="matrix(1.00, 0.00, -0.00, -1.00, 134.5, 2.0)">S</text><text xml:space="preserve" font-family="Avenir-Book" font-size="15.0" fill="#324763" transform="matrix(1.00, 0.00, -0.00, -1.00, 142.9, 2.0)"> </text><text xml:space="preserve" font-family="Avenir-Book" font-size="15.0" fill="#324763" transform="matrix(1.00, 0.00, -0.00, -1.00, 147.0, 2.0)">9</text><text xml:space="preserve" font-family="Avenir-Book" font-size="15.0" fill="#324763" transform="matrix(1.00, 0.00, -0.00, -1.00, 155.4, 2.0)">6</text><text xml:space="preserve" font-family="Avenir-Book" font-size="15.0" fill="#324763" transform="matrix(1.00, 0.00, -0.00, -1.00, 163.7, 2.0)">0</text><text xml:space="preserve" font-family="Avenir-Book" font-size="15.0" fill="#324763" transform="matrix(1.00, 0.00, -0.00, -1.00, 172.0, 2.0)">G</text><text xml:space="preserve" font-family="Avenir-Book" font-size="15.0" fill="#324763" transform="matrix(1.00, 0.00, -0.00, -1.00, 183.7, 2.0)">B</text></g></svg>