<?xml version="1.0" encoding="UTF-8" standalone="no"?><svg xmlns="http://www.w3.org/2000/svg" xmlns:xlink="http://www.w3.org/1999/xlink" clip-rule="evenodd" stroke-miterlimit="4.00" viewBox="0 0 199 33"><desc>SVG generated by Keynote</desc><defs></defs><g transform="matrix(1.00, 0.00, -0.00, -1.00, 0.0, 33.0)"><text xml:space="preserve" font-family="Avenir-Heavy" font-weight="bold" font-size="39.0" fill="#324763" transform="matrix(1.00, 0.00, -0.00, -1.00, -2.0, 3.0)">L</text><text xml:space="preserve" font-family="Avenir-Heavy" font-weight="bold" font-size="39.0" fill="#324763" transform="matrix(1.00, 0.00, -0.00, -1.00, 18.2, 3.0)">e</text><text xml:space="preserve" font-family="Avenir-Heavy" font-weight="bold" font-size="39.0" fill="#324763" transform="matrix(1.00, 0.00, -0.00, -1.00, 40.6, 3.0)">e</text><text xml:space="preserve" font-family="Avenir-Heavy" font-weight="bold" font-size="39.0" fill="#324763" transform="matrix(1.00, 0.00, -0.00, -1.00, 63.0, 3.0)">t</text><text xml:space="preserve" font-family="Avenir-Heavy" font-weight="bold" font-size="39.0" fill="#324763" transform="matrix(1.00, 0.00, -0.00, -1.00, 78.2, 3.0)"> </text><text xml:space="preserve" font-family="Avenir-Heavy" font-weight="bold" font-size="39.0" fill="#324763" transform="matrix(1.00, 0.00, -0.00, -1.00, 89.7, 3.0)">G</text><text xml:space="preserve" font-family="Avenir-Heavy" font-weight="bold" font-size="39.0" fill="#324763" transform="matrix(1.00, 0.00, -0.00, -1.00, 120.1, 3.0)">a</text><text xml:space="preserve" font-family="Avenir-Heavy" font-weight="bold" font-size="39.0" fill="#324763" transform="matrix(1.00, 0.00, -0.00, -1.00, 141.0, 3.0)">m</text><text xml:space="preserve" font-family="Avenir-Heavy" font-weight="bold" font-size="39.0" fill="#324763" transform="matrix(1.00, 0.00, -0.00, -1.00, 174.9, 3.0)">e</text></g></svg>