<?xml version="1.0" encoding="UTF-8" standalone="no"?><svg xmlns="http://www.w3.org/2000/svg" xmlns:xlink="http://www.w3.org/1999/xlink" clip-rule="evenodd" stroke-miterlimit="4.00" viewBox="0 0 74 10"><desc>SVG generated by Keynote</desc><defs></defs><g transform="matrix(1.00, 0.00, -0.00, -1.00, 0.0, 10.0)"><text xml:space="preserve" font-family="Avenir-Heavy" font-weight="bold" font-size="9.0" fill="#324763" transform="matrix(1.00, 0.00, -0.00, -1.00, 1.0, 2.0)">M</text><text xml:space="preserve" font-family="Avenir-Heavy" font-weight="bold" font-size="9.0" fill="#324763" transform="matrix(1.00, 0.00, -0.00, -1.00, 9.3, 2.0)">O</text><text xml:space="preserve" font-family="Avenir-Heavy" font-weight="bold" font-size="9.0" fill="#324763" transform="matrix(1.00, 0.00, -0.00, -1.00, 16.8, 2.0)">T</text><text xml:space="preserve" font-family="Avenir-Heavy" font-weight="bold" font-size="9.0" fill="#324763" transform="matrix(1.00, 0.00, -0.00, -1.00, 22.0, 2.0)">H</text><text xml:space="preserve" font-family="Avenir-Heavy" font-weight="bold" font-size="9.0" fill="#324763" transform="matrix(1.00, 0.00, -0.00, -1.00, 28.7, 2.0)">E</text><text xml:space="preserve" font-family="Avenir-Heavy" font-weight="bold" font-size="9.0" fill="#324763" transform="matrix(1.00, 0.00, -0.00, -1.00, 34.2, 2.0)">R</text><text xml:space="preserve" font-family="Avenir-Heavy" font-weight="bold" font-size="9.0" fill="#324763" transform="matrix(1.00, 0.00, -0.00, -1.00, 39.8, 2.0)">B</text><text xml:space="preserve" font-family="Avenir-Heavy" font-weight="bold" font-size="9.0" fill="#324763" transform="matrix(1.00, 0.00, -0.00, -1.00, 45.7, 2.0)">O</text><text xml:space="preserve" font-family="Avenir-Heavy" font-weight="bold" font-size="9.0" fill="#324763" transform="matrix(1.00, 0.00, -0.00, -1.00, 53.2, 2.0)">A</text><text xml:space="preserve" font-family="Avenir-Heavy" font-weight="bold" font-size="9.0" fill="#324763" transform="matrix(1.00, 0.00, -0.00, -1.00, 59.7, 2.0)">R</text><text xml:space="preserve" font-family="Avenir-Heavy" font-weight="bold" font-size="9.0" fill="#324763" transform="matrix(1.00, 0.00, -0.00, -1.00, 65.3, 2.0)">D</text></g></svg>