<?xml version="1.0" encoding="UTF-8" standalone="no"?><svg xmlns="http://www.w3.org/2000/svg" xmlns:xlink="http://www.w3.org/1999/xlink" clip-rule="evenodd" stroke-miterlimit="4.00" viewBox="0 0 71 10"><desc>SVG generated by Keynote</desc><defs></defs><g transform="matrix(1.00, 0.00, -0.00, -1.00, 0.0, 10.0)"><text xml:space="preserve" font-family="Avenir-Heavy" font-weight="bold" font-size="9.0" fill="#324763" transform="matrix(1.00, 0.00, -0.00, -1.00, 1.0, 2.0)">P</text><text xml:space="preserve" font-family="Avenir-Heavy" font-weight="bold" font-size="9.0" fill="#324763" transform="matrix(1.00, 0.00, -0.00, -1.00, 6.5, 2.0)">O</text><text xml:space="preserve" font-family="Avenir-Heavy" font-weight="bold" font-size="9.0" fill="#324763" transform="matrix(1.00, 0.00, -0.00, -1.00, 14.0, 2.0)">W</text><text xml:space="preserve" font-family="Avenir-Heavy" font-weight="bold" font-size="9.0" fill="#324763" transform="matrix(1.00, 0.00, -0.00, -1.00, 22.8, 2.0)">E</text><text xml:space="preserve" font-family="Avenir-Heavy" font-weight="bold" font-size="9.0" fill="#324763" transform="matrix(1.00, 0.00, -0.00, -1.00, 28.3, 2.0)">R</text><text xml:space="preserve" font-family="Avenir-Heavy" font-weight="bold" font-size="9.0" fill="#324763" transform="matrix(1.00, 0.00, -0.00, -1.00, 34.0, 2.0)"> </text><text xml:space="preserve" font-family="Avenir-Heavy" font-weight="bold" font-size="9.0" fill="#324763" transform="matrix(1.00, 0.00, -0.00, -1.00, 36.7, 2.0)">S</text><text xml:space="preserve" font-family="Avenir-Heavy" font-weight="bold" font-size="9.0" fill="#324763" transform="matrix(1.00, 0.00, -0.00, -1.00, 41.8, 2.0)">U</text><text xml:space="preserve" font-family="Avenir-Heavy" font-weight="bold" font-size="9.0" fill="#324763" transform="matrix(1.00, 0.00, -0.00, -1.00, 48.3, 2.0)">P</text><text xml:space="preserve" font-family="Avenir-Heavy" font-weight="bold" font-size="9.0" fill="#324763" transform="matrix(1.00, 0.00, -0.00, -1.00, 53.8, 2.0)">P</text><text xml:space="preserve" font-family="Avenir-Heavy" font-weight="bold" font-size="9.0" fill="#324763" transform="matrix(1.00, 0.00, -0.00, -1.00, 59.3, 2.0)">L</text><text xml:space="preserve" font-family="Avenir-Heavy" font-weight="bold" font-size="9.0" fill="#324763" transform="matrix(1.00, 0.00, -0.00, -1.00, 63.0, 2.0)">Y</text></g></svg>