<?xml version="1.0" encoding="UTF-8" standalone="no"?><svg xmlns="http://www.w3.org/2000/svg" xmlns:xlink="http://www.w3.org/1999/xlink" clip-rule="evenodd" stroke-miterlimit="4.00" viewBox="0 0 262 33"><desc>SVG generated by Keynote</desc><defs></defs><g transform="matrix(1.00, 0.00, -0.00, -1.00, 0.0, 33.0)"><text xml:space="preserve" font-family="Avenir-Heavy" font-weight="bold" font-size="39.0" fill="#4C76A3" transform="matrix(1.00, 0.00, -0.00, -1.00, -1.0, 3.0)">P</text><text xml:space="preserve" font-family="Avenir-Heavy" font-weight="bold" font-size="39.0" fill="#4C76A3" transform="matrix(1.00, 0.00, -0.00, -1.00, 22.8, 3.0)">C</text><text xml:space="preserve" font-family="Avenir-Heavy" font-weight="bold" font-size="39.0" fill="#4C76A3" transform="matrix(1.00, 0.00, -0.00, -1.00, 49.5, 3.0)"> </text><text xml:space="preserve" font-family="Avenir-Heavy" font-weight="bold" font-size="39.0" fill="#4C76A3" transform="matrix(1.00, 0.00, -0.00, -1.00, 61.1, 3.0)">S</text><text xml:space="preserve" font-family="Avenir-Heavy" font-weight="bold" font-size="39.0" fill="#4C76A3" transform="matrix(1.00, 0.00, -0.00, -1.00, 83.5, 3.0)">U</text><text xml:space="preserve" font-family="Avenir-Heavy" font-weight="bold" font-size="39.0" fill="#4C76A3" transform="matrix(1.00, 0.00, -0.00, -1.00, 111.6, 3.0)">M</text><text xml:space="preserve" font-family="Avenir-Heavy" font-weight="bold" font-size="39.0" fill="#4C76A3" transform="matrix(1.00, 0.00, -0.00, -1.00, 147.7, 3.0)">M</text><text xml:space="preserve" font-family="Avenir-Heavy" font-weight="bold" font-size="39.0" fill="#4C76A3" transform="matrix(1.00, 0.00, -0.00, -1.00, 183.9, 3.0)">A</text><text xml:space="preserve" font-family="Avenir-Heavy" font-weight="bold" font-size="39.0" fill="#4C76A3" transform="matrix(1.00, 0.00, -0.00, -1.00, 212.0, 3.0)">R</text><text xml:space="preserve" font-family="Avenir-Heavy" font-weight="bold" font-size="39.0" fill="#4C76A3" transform="matrix(1.00, 0.00, -0.00, -1.00, 235.1, 3.0)">Y</text></g></svg>