<?xml version="1.0" encoding="UTF-8" standalone="no"?><svg xmlns="http://www.w3.org/2000/svg" xmlns:xlink="http://www.w3.org/1999/xlink" clip-rule="evenodd" stroke-miterlimit="4.00" viewBox="0 0 137 68"><desc>SVG generated by Keynote</desc><defs></defs><g transform="matrix(1.00, 0.00, -0.00, -1.00, 0.0, 68.0)"><g><clipPath id="clip-3070"><path d="M 0.6 0.8 L 136.1 0.8 L 136.1 67.0 L 0.6 67.0 Z M 0.6 0.8 "></path></clipPath><g clip-path="url(#clip-3070)"><path d="M 1.6 66.0 L 135.1 66.0 L 135.1 1.8 L 1.6 1.8 Z M 1.6 66.0 " fill="#5F834B"></path></g></g><g><clipPath id="clip-3071"><path d="M 13.6 12.2 L 123.1 12.2 L 123.1 55.6 L 13.6 55.6 Z M 13.6 12.2 "></path></clipPath><g clip-path="url(#clip-3071)"><text xml:space="preserve" font-family="Avenir-Heavy" font-weight="bold" font-size="16.0" fill="#FEFFFE" transform="matrix(1.00, 0.00, -0.00, -1.00, 34.0, 28.0)">B</text><text xml:space="preserve" font-family="Avenir-Heavy" font-weight="bold" font-size="16.0" fill="#FEFFFE" transform="matrix(1.00, 0.00, -0.00, -1.00, 44.4, 28.0)">u</text><text xml:space="preserve" font-family="Avenir-Heavy" font-weight="bold" font-size="16.0" fill="#FEFFFE" transform="matrix(1.00, 0.00, -0.00, -1.00, 53.6, 28.0)">y</text><text xml:space="preserve" font-family="Avenir-Heavy" font-weight="bold" font-size="16.0" fill="#FEFFFE" transform="matrix(1.00, 0.00, -0.00, -1.00, 61.9, 28.0)"> </text><text xml:space="preserve" font-family="Avenir-Heavy" font-weight="bold" font-size="16.0" fill="#FEFFFE" transform="matrix(1.00, 0.00, -0.00, -1.00, 66.6, 28.0)">N</text><text xml:space="preserve" font-family="Avenir-Heavy" font-weight="bold" font-size="16.0" fill="#FEFFFE" transform="matrix(1.00, 0.00, -0.00, -1.00, 79.3, 28.0)">o</text><text xml:space="preserve" font-family="Avenir-Heavy" font-weight="bold" font-size="16.0" fill="#FEFFFE" transform="matrix(1.00, 0.00, -0.00, -1.00, 89.1, 28.0)">w</text></g></g></g></svg>