<?xml version="1.0" encoding="UTF-8" standalone="no"?><svg xmlns="http://www.w3.org/2000/svg" xmlns:xlink="http://www.w3.org/1999/xlink" clip-rule="evenodd" stroke-miterlimit="4.00" viewBox="0 0 69 16"><desc>SVG generated by Keynote</desc><defs></defs><g transform="matrix(1.00, 0.00, -0.00, -1.00, 0.0, 16.0)"><text xml:space="preserve" font-family="Avenir-Heavy" font-weight="bold" font-size="12.0" fill="#FEFFFE" transform="matrix(1.00, 0.00, -0.00, -1.00, 1.0, 5.0)">C</text><text xml:space="preserve" font-family="Avenir-Heavy" font-weight="bold" font-size="12.0" fill="#FEFFFE" transform="matrix(1.00, 0.00, -0.00, -1.00, 9.2, 5.0)">o</text><text xml:space="preserve" font-family="Avenir-Heavy" font-weight="bold" font-size="12.0" fill="#FEFFFE" transform="matrix(1.00, 0.00, -0.00, -1.00, 16.5, 5.0)">m</text><text xml:space="preserve" font-family="Avenir-Heavy" font-weight="bold" font-size="12.0" fill="#FEFFFE" transform="matrix(1.00, 0.00, -0.00, -1.00, 27.0, 5.0)">p</text><text xml:space="preserve" font-family="Avenir-Heavy" font-weight="bold" font-size="12.0" fill="#FEFFFE" transform="matrix(1.00, 0.00, -0.00, -1.00, 34.5, 5.0)">o</text><text xml:space="preserve" font-family="Avenir-Heavy" font-weight="bold" font-size="12.0" fill="#FEFFFE" transform="matrix(1.00, 0.00, -0.00, -1.00, 41.9, 5.0)">n</text><text xml:space="preserve" font-family="Avenir-Heavy" font-weight="bold" font-size="12.0" fill="#FEFFFE" transform="matrix(1.00, 0.00, -0.00, -1.00, 48.7, 5.0)">e</text><text xml:space="preserve" font-family="Avenir-Heavy" font-weight="bold" font-size="12.0" fill="#FEFFFE" transform="matrix(1.00, 0.00, -0.00, -1.00, 55.6, 5.0)">n</text><text xml:space="preserve" font-family="Avenir-Heavy" font-weight="bold" font-size="12.0" fill="#FEFFFE" transform="matrix(1.00, 0.00, -0.00, -1.00, 62.5, 5.0)">t</text></g></svg>