<?xml version="1.0" encoding="UTF-8" standalone="no"?><svg xmlns="http://www.w3.org/2000/svg" xmlns:xlink="http://www.w3.org/1999/xlink" clip-rule="evenodd" stroke-miterlimit="4.00" viewBox="0 0 151 19"><desc>SVG generated by Keynote</desc><defs></defs><g transform="matrix(1.00, 0.00, -0.00, -1.00, 0.0, 19.0)"><text xml:space="preserve" font-family="Avenir-Book" font-size="15.0" fill="#324763" transform="matrix(1.00, 0.00, -0.00, -1.00, 2.0, 6.0)">C</text><text xml:space="preserve" font-family="Avenir-Book" font-size="15.0" fill="#324763" transform="matrix(1.00, 0.00, -0.00, -1.00, 12.6, 6.0)">o</text><text xml:space="preserve" font-family="Avenir-Book" font-size="15.0" fill="#324763" transform="matrix(1.00, 0.00, -0.00, -1.00, 21.5, 6.0)">r</text><text xml:space="preserve" font-family="Avenir-Book" font-size="15.0" fill="#324763" transform="matrix(1.00, 0.00, -0.00, -1.00, 26.4, 6.0)">s</text><text xml:space="preserve" font-family="Avenir-Book" font-size="15.0" fill="#324763" transform="matrix(1.00, 0.00, -0.00, -1.00, 32.8, 6.0)">a</text><text xml:space="preserve" font-family="Avenir-Book" font-size="15.0" fill="#324763" transform="matrix(1.00, 0.00, -0.00, -1.00, 40.6, 6.0)">i</text><text xml:space="preserve" font-family="Avenir-Book" font-size="15.0" fill="#324763" transform="matrix(1.00, 0.00, -0.00, -1.00, 44.2, 6.0)">r</text><text xml:space="preserve" font-family="Avenir-Book" font-size="15.0" fill="#324763" transform="matrix(1.00, 0.00, -0.00, -1.00, 49.2, 6.0)"> </text><text xml:space="preserve" font-family="Avenir-Book" font-size="15.0" fill="#324763" transform="matrix(1.00, 0.00, -0.00, -1.00, 53.4, 6.0)">G</text><text xml:space="preserve" font-family="Avenir-Book" font-size="15.0" fill="#324763" transform="matrix(1.00, 0.00, -0.00, -1.00, 65.0, 6.0)">r</text><text xml:space="preserve" font-family="Avenir-Book" font-size="15.0" fill="#324763" transform="matrix(1.00, 0.00, -0.00, -1.00, 70.0, 6.0)">a</text><text xml:space="preserve" font-family="Avenir-Book" font-size="15.0" fill="#324763" transform="matrix(1.00, 0.00, -0.00, -1.00, 77.8, 6.0)">p</text><text xml:space="preserve" font-family="Avenir-Book" font-size="15.0" fill="#324763" transform="matrix(1.00, 0.00, -0.00, -1.00, 87.0, 6.0)">h</text><text xml:space="preserve" font-family="Avenir-Book" font-size="15.0" fill="#324763" transform="matrix(1.00, 0.00, -0.00, -1.00, 95.3, 6.0)">i</text><text xml:space="preserve" font-family="Avenir-Book" font-size="15.0" fill="#324763" transform="matrix(1.00, 0.00, -0.00, -1.00, 98.9, 6.0)">t</text><text xml:space="preserve" font-family="Avenir-Book" font-size="15.0" fill="#324763" transform="matrix(1.00, 0.00, -0.00, -1.00, 103.9, 6.0)">e</text><text xml:space="preserve" font-family="Avenir-Book" font-size="15.0" fill="#324763" transform="matrix(1.00, 0.00, -0.00, -1.00, 112.2, 6.0)"> </text><text xml:space="preserve" font-family="Avenir-Book" font-size="15.0" fill="#324763" transform="matrix(1.00, 0.00, -0.00, -1.00, 116.4, 6.0)">2</text><text xml:space="preserve" font-family="Avenir-Book" font-size="15.0" fill="#324763" transform="matrix(1.00, 0.00, -0.00, -1.00, 124.7, 6.0)">3</text><text xml:space="preserve" font-family="Avenir-Book" font-size="15.0" fill="#324763" transform="matrix(1.00, 0.00, -0.00, -1.00, 133.1, 6.0)">0</text><text xml:space="preserve" font-family="Avenir-Book" font-size="15.0" fill="#324763" transform="matrix(1.00, 0.00, -0.00, -1.00, 141.4, 6.0)">T</text></g></svg>