<?xml version="1.0" encoding="UTF-8" standalone="no"?><svg xmlns="http://www.w3.org/2000/svg" xmlns:xlink="http://www.w3.org/1999/xlink" clip-rule="evenodd" stroke-miterlimit="4.00" viewBox="0 0 193 173"><desc>SVG generated by Keynote</desc><defs></defs><g transform="matrix(1.00, 0.00, -0.00, -1.00, 0.0, 173.0)"><g><clipPath id="clip-3088"><path d="M 42.0 172.0 L 145.0 172.0 L 145.0 71.0 L 42.0 71.0 Z M 42.2 172.2 "></path></clipPath><g clip-path="url(#clip-3088)"><g><clipPath id="clip-3089"><path d="M 42.2 71.2 L 145.1 71.2 L 145.1 172.2 L 42.2 172.2 Z M 42.2 71.2 "></path></clipPath><g clip-path="url(#clip-3089)"><image xlink:href="../../3F8C8178-00D4-42B9-A667-542AE67D3153/assets/CC86540694AD337776D650E479F6D57F.png" width="591.00" height="402.00" transform="matrix(1.00, 0.00, -0.00, -1.00, -322.0, 174.0)"></image></g></g></g></g><g><clipPath id="clip-3090"><path d="M -2.2 27.3 L 194.9 27.3 L 194.9 74.0 L -2.2 74.0 Z M -2.2 27.3 "></path></clipPath><g clip-path="url(#clip-3090)"><text xml:space="preserve" font-family="AvenirNextCondensed-DemiBold" font-weight="bold" font-size="23.0" fill="#4C76A3" transform="matrix(1.00, 0.00, -0.00, -1.00, 6.0, 44.0)">A</text><text xml:space="preserve" font-family="AvenirNextCondensed-DemiBold" font-weight="bold" font-size="23.0" fill="#4C76A3" transform="matrix(1.00, 0.00, -0.00, -1.00, 17.6, 44.0)">d</text><text xml:space="preserve" font-family="AvenirNextCondensed-DemiBold" font-weight="bold" font-size="23.0" fill="#4C76A3" transform="matrix(1.00, 0.00, -0.00, -1.00, 29.0, 44.0)">o</text><text xml:space="preserve" font-family="AvenirNextCondensed-DemiBold" font-weight="bold" font-size="23.0" fill="#4C76A3" transform="matrix(1.00, 0.00, -0.00, -1.00, 39.8, 44.0)">b</text><text xml:space="preserve" font-family="AvenirNextCondensed-DemiBold" font-weight="bold" font-size="23.0" fill="#4C76A3" transform="matrix(1.00, 0.00, -0.00, -1.00, 51.3, 44.0)">e</text><text xml:space="preserve" font-family="AvenirNextCondensed-DemiBold" font-weight="bold" font-size="23.0" fill="#4C76A3" transform="matrix(1.00, 0.00, -0.00, -1.00, 61.6, 44.0)"> </text><text xml:space="preserve" font-family="AvenirNextCondensed-DemiBold" font-weight="bold" font-size="23.0" fill="#4C76A3" transform="matrix(1.00, 0.00, -0.00, -1.00, 66.1, 44.0)">P</text><text xml:space="preserve" font-family="AvenirNextCondensed-DemiBold" font-weight="bold" font-size="23.0" fill="#4C76A3" transform="matrix(1.00, 0.00, -0.00, -1.00, 77.5, 44.0)">h</text><text xml:space="preserve" font-family="AvenirNextCondensed-DemiBold" font-weight="bold" font-size="23.0" fill="#4C76A3" transform="matrix(1.00, 0.00, -0.00, -1.00, 89.0, 44.0)">o</text><text xml:space="preserve" font-family="AvenirNextCondensed-DemiBold" font-weight="bold" font-size="23.0" fill="#4C76A3" transform="matrix(1.00, 0.00, -0.00, -1.00, 99.8, 44.0)">t</text><text xml:space="preserve" font-family="AvenirNextCondensed-DemiBold" font-weight="bold" font-size="23.0" fill="#4C76A3" transform="matrix(1.00, 0.00, -0.00, -1.00, 106.3, 44.0)">o</text><text xml:space="preserve" font-family="AvenirNextCondensed-DemiBold" font-weight="bold" font-size="23.0" fill="#4C76A3" transform="matrix(1.00, 0.00, -0.00, -1.00, 117.1, 44.0)">s</text><text xml:space="preserve" font-family="AvenirNextCondensed-DemiBold" font-weight="bold" font-size="23.0" fill="#4C76A3" transform="matrix(1.00, 0.00, -0.00, -1.00, 125.6, 44.0)">h</text><text xml:space="preserve" font-family="AvenirNextCondensed-DemiBold" font-weight="bold" font-size="23.0" fill="#4C76A3" transform="matrix(1.00, 0.00, -0.00, -1.00, 137.2, 44.0)">o</text><text xml:space="preserve" font-family="AvenirNextCondensed-DemiBold" font-weight="bold" font-size="23.0" fill="#4C76A3" transform="matrix(1.00, 0.00, -0.00, -1.00, 148.0, 44.0)">p</text><text xml:space="preserve" font-family="AvenirNextCondensed-DemiBold" font-weight="bold" font-size="23.0" fill="#4C76A3" transform="matrix(1.00, 0.00, -0.00, -1.00, 159.4, 44.0)"> </text><text xml:space="preserve" font-family="AvenirNextCondensed-DemiBold" font-weight="bold" font-size="23.0" fill="#4C76A3" transform="matrix(1.00, 0.00, -0.00, -1.00, 163.8, 44.0)">C</text><text xml:space="preserve" font-family="AvenirNextCondensed-DemiBold" font-weight="bold" font-size="23.0" fill="#4C76A3" transform="matrix(1.00, 0.00, -0.00, -1.00, 175.0, 44.0)">C</text></g></g><g><clipPath id="clip-3091"><path d="M 50.2 -2.0 L 142.5 -2.0 L 142.5 43.4 L 50.2 43.4 Z M 50.2 -2.0 "></path></clipPath><g clip-path="url(#clip-3091)"><text xml:space="preserve" font-family="ZapfDingbatsITC" font-size="31.0" fill="#324763" transform="matrix(1.00, 0.00, -0.00, -1.00, 58.0, 11.0)">★</text><text xml:space="preserve" font-family="ZapfDingbatsITC" font-size="31.0" fill="#324763" transform="matrix(1.00, 0.00, -0.00, -1.00, 83.3, 11.0)">★</text><text xml:space="preserve" font-family="ZapfDingbatsITC" font-size="31.0" fill="#324763" transform="matrix(1.00, 0.00, -0.00, -1.00, 108.6, 11.0)">★</text></g></g></g></svg>