<?xml version="1.0" encoding="UTF-8" standalone="no"?><svg xmlns="http://www.w3.org/2000/svg" xmlns:xlink="http://www.w3.org/1999/xlink" clip-rule="evenodd" stroke-miterlimit="4.00" viewBox="0 0 59 12"><desc>SVG generated by Keynote</desc><defs></defs><g transform="matrix(1.00, 0.00, -0.00, -1.00, 0.0, 12.0)"><text xml:space="preserve" font-family="Avenir-Heavy" font-weight="bold" font-size="12.0" fill="#FEFFFE" transform="matrix(1.00, 0.00, -0.00, -1.00, 2.0, 2.0)">B</text><text xml:space="preserve" font-family="Avenir-Heavy" font-weight="bold" font-size="12.0" fill="#FEFFFE" transform="matrix(1.00, 0.00, -0.00, -1.00, 9.8, 2.0)">e</text><text xml:space="preserve" font-family="Avenir-Heavy" font-weight="bold" font-size="12.0" fill="#FEFFFE" transform="matrix(1.00, 0.00, -0.00, -1.00, 16.7, 2.0)">s</text><text xml:space="preserve" font-family="Avenir-Heavy" font-weight="bold" font-size="12.0" fill="#FEFFFE" transform="matrix(1.00, 0.00, -0.00, -1.00, 22.0, 2.0)">t</text><text xml:space="preserve" font-family="Avenir-Heavy" font-weight="bold" font-size="12.0" fill="#FEFFFE" transform="matrix(1.00, 0.00, -0.00, -1.00, 26.7, 2.0)"> </text><text xml:space="preserve" font-family="Avenir-Heavy" font-weight="bold" font-size="12.0" fill="#FEFFFE" transform="matrix(1.00, 0.00, -0.00, -1.00, 30.2, 2.0)">P</text><text xml:space="preserve" font-family="Avenir-Heavy" font-weight="bold" font-size="12.0" fill="#FEFFFE" transform="matrix(1.00, 0.00, -0.00, -1.00, 37.5, 2.0)">r</text><text xml:space="preserve" font-family="Avenir-Heavy" font-weight="bold" font-size="12.0" fill="#FEFFFE" transform="matrix(1.00, 0.00, -0.00, -1.00, 42.2, 2.0)">i</text><text xml:space="preserve" font-family="Avenir-Heavy" font-weight="bold" font-size="12.0" fill="#FEFFFE" transform="matrix(1.00, 0.00, -0.00, -1.00, 45.3, 2.0)">c</text><text xml:space="preserve" font-family="Avenir-Heavy" font-weight="bold" font-size="12.0" fill="#FEFFFE" transform="matrix(1.00, 0.00, -0.00, -1.00, 51.1, 2.0)">e</text></g></svg>