<?xml version="1.0" encoding="UTF-8" standalone="no"?><svg xmlns="http://www.w3.org/2000/svg" xmlns:xlink="http://www.w3.org/1999/xlink" clip-rule="evenodd" stroke-miterlimit="4.00" viewBox="0 0 108 15"><desc>SVG generated by Keynote</desc><defs></defs><g transform="matrix(1.00, 0.00, -0.00, -1.00, 0.0, 15.0)"><text xml:space="preserve" font-family="Avenir-Book" font-size="15.0" fill="#324763" transform="matrix(1.00, 0.00, -0.00, -1.00, 2.0, 2.0)">A</text><text xml:space="preserve" font-family="Avenir-Book" font-size="15.0" fill="#324763" transform="matrix(1.00, 0.00, -0.00, -1.00, 12.3, 2.0)">M</text><text xml:space="preserve" font-family="Avenir-Book" font-size="15.0" fill="#324763" transform="matrix(1.00, 0.00, -0.00, -1.00, 25.6, 2.0)">D</text><text xml:space="preserve" font-family="Avenir-Book" font-size="15.0" fill="#324763" transform="matrix(1.00, 0.00, -0.00, -1.00, 36.8, 2.0)"> </text><text xml:space="preserve" font-family="Avenir-Book" font-size="15.0" fill="#324763" transform="matrix(1.00, 0.00, -0.00, -1.00, 40.9, 2.0)">A</text><text xml:space="preserve" font-family="Avenir-Book" font-size="15.0" fill="#324763" transform="matrix(1.00, 0.00, -0.00, -1.00, 51.2, 2.0)">t</text><text xml:space="preserve" font-family="Avenir-Book" font-size="15.0" fill="#324763" transform="matrix(1.00, 0.00, -0.00, -1.00, 56.2, 2.0)">h</text><text xml:space="preserve" font-family="Avenir-Book" font-size="15.0" fill="#324763" transform="matrix(1.00, 0.00, -0.00, -1.00, 64.5, 2.0)">l</text><text xml:space="preserve" font-family="Avenir-Book" font-size="15.0" fill="#324763" transform="matrix(1.00, 0.00, -0.00, -1.00, 68.1, 2.0)">o</text><text xml:space="preserve" font-family="Avenir-Book" font-size="15.0" fill="#324763" transform="matrix(1.00, 0.00, -0.00, -1.00, 77.0, 2.0)">n</text><text xml:space="preserve" font-family="Avenir-Book" font-size="15.0" fill="#324763" transform="matrix(1.00, 0.00, -0.00, -1.00, 85.4, 2.0)"> </text><text xml:space="preserve" font-family="Avenir-Book" font-size="15.0" fill="#324763" transform="matrix(1.00, 0.00, -0.00, -1.00, 89.5, 2.0)">X</text><text xml:space="preserve" font-family="Avenir-Book" font-size="15.0" fill="#324763" transform="matrix(1.00, 0.00, -0.00, -1.00, 99.0, 2.0)">4</text></g></svg>