<?xml version="1.0" encoding="UTF-8" standalone="no"?><svg xmlns="http://www.w3.org/2000/svg" xmlns:xlink="http://www.w3.org/1999/xlink" clip-rule="evenodd" stroke-miterlimit="4.00" viewBox="0 0 116 15"><desc>SVG generated by Keynote</desc><defs></defs><g transform="matrix(1.00, 0.00, -0.00, -1.00, 0.0, 15.0)"><text xml:space="preserve" font-family="Avenir-Book" font-size="15.0" fill="#324763" transform="matrix(1.00, 0.00, -0.00, -1.00, 2.0, 2.0)">C</text><text xml:space="preserve" font-family="Avenir-Book" font-size="15.0" fill="#324763" transform="matrix(1.00, 0.00, -0.00, -1.00, 12.6, 2.0)">o</text><text xml:space="preserve" font-family="Avenir-Book" font-size="15.0" fill="#324763" transform="matrix(1.00, 0.00, -0.00, -1.00, 21.5, 2.0)">r</text><text xml:space="preserve" font-family="Avenir-Book" font-size="15.0" fill="#324763" transform="matrix(1.00, 0.00, -0.00, -1.00, 26.4, 2.0)">s</text><text xml:space="preserve" font-family="Avenir-Book" font-size="15.0" fill="#324763" transform="matrix(1.00, 0.00, -0.00, -1.00, 32.8, 2.0)">a</text><text xml:space="preserve" font-family="Avenir-Book" font-size="15.0" fill="#324763" transform="matrix(1.00, 0.00, -0.00, -1.00, 40.6, 2.0)">i</text><text xml:space="preserve" font-family="Avenir-Book" font-size="15.0" fill="#324763" transform="matrix(1.00, 0.00, -0.00, -1.00, 44.2, 2.0)">r</text><text xml:space="preserve" font-family="Avenir-Book" font-size="15.0" fill="#324763" transform="matrix(1.00, 0.00, -0.00, -1.00, 49.2, 2.0)"> </text><text xml:space="preserve" font-family="Avenir-Book" font-size="15.0" fill="#324763" transform="matrix(1.00, 0.00, -0.00, -1.00, 53.4, 2.0)">C</text><text xml:space="preserve" font-family="Avenir-Book" font-size="15.0" fill="#324763" transform="matrix(1.00, 0.00, -0.00, -1.00, 63.9, 2.0)">X</text><text xml:space="preserve" font-family="Avenir-Book" font-size="15.0" fill="#324763" transform="matrix(1.00, 0.00, -0.00, -1.00, 73.4, 2.0)"> </text><text xml:space="preserve" font-family="Avenir-Book" font-size="15.0" fill="#324763" transform="matrix(1.00, 0.00, -0.00, -1.00, 77.5, 2.0)">6</text><text xml:space="preserve" font-family="Avenir-Book" font-size="15.0" fill="#324763" transform="matrix(1.00, 0.00, -0.00, -1.00, 85.9, 2.0)">5</text><text xml:space="preserve" font-family="Avenir-Book" font-size="15.0" fill="#324763" transform="matrix(1.00, 0.00, -0.00, -1.00, 94.2, 2.0)">0</text><text xml:space="preserve" font-family="Avenir-Book" font-size="15.0" fill="#324763" transform="matrix(1.00, 0.00, -0.00, -1.00, 102.6, 2.0)">M</text></g></svg>