<?xml version="1.0" encoding="UTF-8" standalone="no"?><svg xmlns="http://www.w3.org/2000/svg" xmlns:xlink="http://www.w3.org/1999/xlink" clip-rule="evenodd" stroke-miterlimit="4.00" viewBox="0 0 185 15"><desc>SVG generated by Keynote</desc><defs></defs><g transform="matrix(1.00, 0.00, -0.00, -1.00, 0.0, 15.0)"><text xml:space="preserve" font-family="Avenir-Book" font-size="15.0" fill="#324763" transform="matrix(1.00, 0.00, -0.00, -1.00, 1.0, 2.0)">N</text><text xml:space="preserve" font-family="Avenir-Book" font-size="15.0" fill="#324763" transform="matrix(1.00, 0.00, -0.00, -1.00, 12.7, 2.0)">V</text><text xml:space="preserve" font-family="Avenir-Book" font-size="15.0" fill="#324763" transform="matrix(1.00, 0.00, -0.00, -1.00, 21.8, 2.0)">I</text><text xml:space="preserve" font-family="Avenir-Book" font-size="15.0" fill="#324763" transform="matrix(1.00, 0.00, -0.00, -1.00, 25.8, 2.0)">D</text><text xml:space="preserve" font-family="Avenir-Book" font-size="15.0" fill="#324763" transform="matrix(1.00, 0.00, -0.00, -1.00, 36.9, 2.0)">I</text><text xml:space="preserve" font-family="Avenir-Book" font-size="15.0" fill="#324763" transform="matrix(1.00, 0.00, -0.00, -1.00, 40.9, 2.0)">A</text><text xml:space="preserve" font-family="Avenir-Book" font-size="15.0" fill="#324763" transform="matrix(1.00, 0.00, -0.00, -1.00, 51.2, 2.0)"> </text><text xml:space="preserve" font-family="Avenir-Book" font-size="15.0" fill="#324763" transform="matrix(1.00, 0.00, -0.00, -1.00, 55.3, 2.0)">G</text><text xml:space="preserve" font-family="Avenir-Book" font-size="15.0" fill="#324763" transform="matrix(1.00, 0.00, -0.00, -1.00, 67.0, 2.0)">e</text><text xml:space="preserve" font-family="Avenir-Book" font-size="15.0" fill="#324763" transform="matrix(1.00, 0.00, -0.00, -1.00, 75.3, 2.0)">F</text><text xml:space="preserve" font-family="Avenir-Book" font-size="15.0" fill="#324763" transform="matrix(1.00, 0.00, -0.00, -1.00, 83.7, 2.0)">o</text><text xml:space="preserve" font-family="Avenir-Book" font-size="15.0" fill="#324763" transform="matrix(1.00, 0.00, -0.00, -1.00, 92.6, 2.0)">r</text><text xml:space="preserve" font-family="Avenir-Book" font-size="15.0" fill="#324763" transform="matrix(1.00, 0.00, -0.00, -1.00, 97.3, 2.0)">c</text><text xml:space="preserve" font-family="Avenir-Book" font-size="15.0" fill="#324763" transform="matrix(1.00, 0.00, -0.00, -1.00, 104.5, 2.0)">e</text><text xml:space="preserve" font-family="Avenir-Book" font-size="15.0" fill="#324763" transform="matrix(1.00, 0.00, -0.00, -1.00, 112.9, 2.0)"> </text><text xml:space="preserve" font-family="Avenir-Book" font-size="15.0" fill="#324763" transform="matrix(1.00, 0.00, -0.00, -1.00, 117.0, 2.0)">G</text><text xml:space="preserve" font-family="Avenir-Book" font-size="15.0" fill="#324763" transform="matrix(1.00, 0.00, -0.00, -1.00, 128.7, 2.0)">T</text><text xml:space="preserve" font-family="Avenir-Book" font-size="15.0" fill="#324763" transform="matrix(1.00, 0.00, -0.00, -1.00, 137.3, 2.0)">X</text><text xml:space="preserve" font-family="Avenir-Book" font-size="15.0" fill="#324763" transform="matrix(1.00, 0.00, -0.00, -1.00, 146.8, 2.0)"> </text><text xml:space="preserve" font-family="Avenir-Book" font-size="15.0" fill="#324763" transform="matrix(1.00, 0.00, -0.00, -1.00, 150.9, 2.0)">1</text><text xml:space="preserve" font-family="Avenir-Book" font-size="15.0" fill="#324763" transform="matrix(1.00, 0.00, -0.00, -1.00, 159.3, 2.0)">0</text><text xml:space="preserve" font-family="Avenir-Book" font-size="15.0" fill="#324763" transform="matrix(1.00, 0.00, -0.00, -1.00, 167.6, 2.0)">7</text><text xml:space="preserve" font-family="Avenir-Book" font-size="15.0" fill="#324763" transform="matrix(1.00, 0.00, -0.00, -1.00, 175.9, 2.0)">0</text></g></svg>