<?xml version="1.0" encoding="UTF-8" standalone="no"?><svg xmlns="http://www.w3.org/2000/svg" xmlns:xlink="http://www.w3.org/1999/xlink" clip-rule="evenodd" stroke-miterlimit="4.00" viewBox="0 0 161 38"><desc>SVG generated by Keynote</desc><defs></defs><g transform="matrix(1.00, 0.00, -0.00, -1.00, 0.0, 38.0)"><text xml:space="preserve" font-family="AvenirNextCondensed-DemiBold" font-weight="bold" font-size="34.0" fill="#4C76A3" transform="matrix(1.00, 0.00, -0.00, -1.00, 2.0, 10.0)">A</text><text xml:space="preserve" font-family="AvenirNextCondensed-DemiBold" font-weight="bold" font-size="34.0" fill="#4C76A3" transform="matrix(1.00, 0.00, -0.00, -1.00, 19.2, 10.0)">p</text><text xml:space="preserve" font-family="AvenirNextCondensed-DemiBold" font-weight="bold" font-size="34.0" fill="#4C76A3" transform="matrix(1.00, 0.00, -0.00, -1.00, 36.1, 10.0)">p</text><text xml:space="preserve" font-family="AvenirNextCondensed-DemiBold" font-weight="bold" font-size="34.0" fill="#4C76A3" transform="matrix(1.00, 0.00, -0.00, -1.00, 52.9, 10.0)">l</text><text xml:space="preserve" font-family="AvenirNextCondensed-DemiBold" font-weight="bold" font-size="34.0" fill="#4C76A3" transform="matrix(1.00, 0.00, -0.00, -1.00, 61.4, 10.0)">i</text><text xml:space="preserve" font-family="AvenirNextCondensed-DemiBold" font-weight="bold" font-size="34.0" fill="#4C76A3" transform="matrix(1.00, 0.00, -0.00, -1.00, 69.9, 10.0)">c</text><text xml:space="preserve" font-family="AvenirNextCondensed-DemiBold" font-weight="bold" font-size="34.0" fill="#4C76A3" transform="matrix(1.00, 0.00, -0.00, -1.00, 81.8, 10.0)">a</text><text xml:space="preserve" font-family="AvenirNextCondensed-DemiBold" font-weight="bold" font-size="34.0" fill="#4C76A3" transform="matrix(1.00, 0.00, -0.00, -1.00, 96.6, 10.0)">t</text><text xml:space="preserve" font-family="AvenirNextCondensed-DemiBold" font-weight="bold" font-size="34.0" fill="#4C76A3" transform="matrix(1.00, 0.00, -0.00, -1.00, 106.2, 10.0)">i</text><text xml:space="preserve" font-family="AvenirNextCondensed-DemiBold" font-weight="bold" font-size="34.0" fill="#4C76A3" transform="matrix(1.00, 0.00, -0.00, -1.00, 114.7, 10.0)">o</text><text xml:space="preserve" font-family="AvenirNextCondensed-DemiBold" font-weight="bold" font-size="34.0" fill="#4C76A3" transform="matrix(1.00, 0.00, -0.00, -1.00, 130.6, 10.0)">n</text><text xml:space="preserve" font-family="AvenirNextCondensed-DemiBold" font-weight="bold" font-size="34.0" fill="#4C76A3" transform="matrix(1.00, 0.00, -0.00, -1.00, 147.8, 10.0)">s</text></g></svg>