<?xml version="1.0" encoding="UTF-8" standalone="no"?><svg xmlns="http://www.w3.org/2000/svg" xmlns:xlink="http://www.w3.org/1999/xlink" clip-rule="evenodd" stroke-miterlimit="4.00" viewBox="0 0 413 88"><desc>SVG generated by Keynote</desc><defs></defs><g transform="matrix(1.00, 0.00, -0.00, -1.00, 0.0, 88.0)"><g><clipPath id="clip-3078"><path d="M 0.4 0.1 L 412.2 0.1 L 412.2 87.8 L 0.4 87.8 Z M 0.4 0.1 "></path></clipPath><g clip-path="url(#clip-3078)"><path d="M 1.4 86.8 L 411.2 86.8 L 411.2 1.1 L 1.4 1.1 Z M 1.4 86.8 " fill="#5F834B"></path></g></g><g><clipPath id="clip-3079"><path d="M 16.5 18.7 L 293.9 18.7 L 293.9 74.2 L 16.5 74.2 Z M 16.5 18.7 "></path></clipPath><g clip-path="url(#clip-3079)"><text xml:space="preserve" font-family="Avenir-Heavy" font-weight="bold" font-size="27.0" fill="#FEFFFE" transform="matrix(1.00, 0.00, -0.00, -1.00, 26.0, 38.0)">B</text><text xml:space="preserve" font-family="Avenir-Heavy" font-weight="bold" font-size="27.0" fill="#FEFFFE" transform="matrix(1.00, 0.00, -0.00, -1.00, 43.5, 38.0)">U</text><text xml:space="preserve" font-family="Avenir-Heavy" font-weight="bold" font-size="27.0" fill="#FEFFFE" transform="matrix(1.00, 0.00, -0.00, -1.00, 63.0, 38.0)">I</text><text xml:space="preserve" font-family="Avenir-Heavy" font-weight="bold" font-size="27.0" fill="#FEFFFE" transform="matrix(1.00, 0.00, -0.00, -1.00, 70.5, 38.0)">L</text><text xml:space="preserve" font-family="Avenir-Heavy" font-weight="bold" font-size="27.0" fill="#FEFFFE" transform="matrix(1.00, 0.00, -0.00, -1.00, 84.5, 38.0)">D</text><text xml:space="preserve" font-family="Avenir-Heavy" font-weight="bold" font-size="27.0" fill="#FEFFFE" transform="matrix(1.00, 0.00, -0.00, -1.00, 105.0, 38.0)"> </text><text xml:space="preserve" font-family="Avenir-Heavy" font-weight="bold" font-size="27.0" fill="#FEFFFE" transform="matrix(1.00, 0.00, -0.00, -1.00, 113.0, 38.0)">T</text><text xml:space="preserve" font-family="Avenir-Heavy" font-weight="bold" font-size="27.0" fill="#FEFFFE" transform="matrix(1.00, 0.00, -0.00, -1.00, 128.5, 38.0)">H</text><text xml:space="preserve" font-family="Avenir-Heavy" font-weight="bold" font-size="27.0" fill="#FEFFFE" transform="matrix(1.00, 0.00, -0.00, -1.00, 148.5, 38.0)">I</text><text xml:space="preserve" font-family="Avenir-Heavy" font-weight="bold" font-size="27.0" fill="#FEFFFE" transform="matrix(1.00, 0.00, -0.00, -1.00, 156.0, 38.0)">S</text><text xml:space="preserve" font-family="Avenir-Heavy" font-weight="bold" font-size="27.0" fill="#FEFFFE" transform="matrix(1.00, 0.00, -0.00, -1.00, 171.5, 38.0)"> </text><text xml:space="preserve" font-family="Avenir-Heavy" font-weight="bold" font-size="27.0" fill="#FEFFFE" transform="matrix(1.00, 0.00, -0.00, -1.00, 179.5, 38.0)">F</text><text xml:space="preserve" font-family="Avenir-Heavy" font-weight="bold" font-size="27.0" fill="#FEFFFE" transform="matrix(1.00, 0.00, -0.00, -1.00, 195.0, 38.0)">O</text><text xml:space="preserve" font-family="Avenir-Heavy" font-weight="bold" font-size="27.0" fill="#FEFFFE" transform="matrix(1.00, 0.00, -0.00, -1.00, 217.5, 38.0)">R</text><text xml:space="preserve" font-family="Avenir-Heavy" font-weight="bold" font-size="27.0" fill="#FEFFFE" transform="matrix(1.00, 0.00, -0.00, -1.00, 234.5, 38.0)"> </text><text xml:space="preserve" font-family="Avenir-Heavy" font-weight="bold" font-size="27.0" fill="#FEFFFE" transform="matrix(1.00, 0.00, -0.00, -1.00, 242.5, 38.0)">M</text><text xml:space="preserve" font-family="Avenir-Heavy" font-weight="bold" font-size="27.0" fill="#FEFFFE" transform="matrix(1.00, 0.00, -0.00, -1.00, 267.5, 38.0)">E</text></g></g><g><clipPath id="clip-3080"><path d="M 296.9 20.2 L 355.7 20.2 L 355.7 79.0 L 296.9 79.0 Z M 296.9 20.2 "></path></clipPath><g clip-path="url(#clip-3080)"><image xlink:href="../../4CB14B03-340A-4341-8442-49BC340847BB/assets/36C3FCAB0AFE4AF3487967DFF7F74E31.png" width="94.00" height="94.00" transform="matrix(0.63, 0.00, -0.00, -0.63, 297.0, 79.0)"></image></g></g><g><clipPath id="clip-3081"><path d="M 385.8 35.0 L 385.8 57.9 L 362.9 57.9 L 362.9 35.0 Z M 385.8 35.0 "></path></clipPath><g clip-path="url(#clip-3081)"><path d="M 384.8 46.5 L 363.9 56.9 L 363.9 36.0 Z M 384.8 46.5 " fill="#FEFFFE"></path></g></g><g><clipPath id="clip-3082"><path d="M 399.4 35.0 L 399.4 57.9 L 376.5 57.9 L 376.5 35.0 Z M 399.4 35.0 "></path></clipPath><g clip-path="url(#clip-3082)"><path d="M 398.4 46.5 L 377.5 56.9 L 377.5 36.0 Z M 398.4 46.5 " fill="#FEFFFE"></path></g></g></g></svg>