<?xml version="1.0" encoding="UTF-8" standalone="no"?><svg xmlns="http://www.w3.org/2000/svg" xmlns:xlink="http://www.w3.org/1999/xlink" clip-rule="evenodd" stroke-miterlimit="4.00" viewBox="0 0 158 316"><desc>SVG generated by Keynote</desc><defs></defs><g transform="matrix(1.00, 0.00, -0.00, -1.00, 0.0, 316.0)"><g><clipPath id="clip-2243"><path d="M 46.5 -2.7 L 111.5 -2.7 L 111.5 48.4 L 46.5 48.4 Z M 46.5 -2.7 "></path></clipPath><g clip-path="url(#clip-2243)"><text xml:space="preserve" font-family="AvenirNextCondensed-DemiBold" font-weight="bold" font-size="25.0" fill="#324763" transform="matrix(1.00, 0.00, -0.00, -1.00, 56.0, 15.0)">C</text><text xml:space="preserve" font-family="AvenirNextCondensed-DemiBold" font-weight="bold" font-size="25.0" fill="#324763" transform="matrix(1.00, 0.00, -0.00, -1.00, 68.1, 15.0)">A</text><text xml:space="preserve" font-family="AvenirNextCondensed-DemiBold" font-weight="bold" font-size="25.0" fill="#324763" transform="matrix(1.00, 0.00, -0.00, -1.00, 80.8, 15.0)">S</text><text xml:space="preserve" font-family="AvenirNextCondensed-DemiBold" font-weight="bold" font-size="25.0" fill="#324763" transform="matrix(1.00, 0.00, -0.00, -1.00, 92.0, 15.0)">E</text></g></g><g><clipPath id="clip-2244"><path d="M -2.8 268.4 L 160.9 268.4 L 160.9 319.5 L -2.8 319.5 Z M -2.8 268.4 "></path></clipPath><g clip-path="url(#clip-2244)"><text xml:space="preserve" font-family="AvenirNextCondensed-DemiBold" font-weight="bold" font-size="25.0" fill="#324763" transform="matrix(1.00, 0.00, -0.00, -1.00, 6.0, 286.0)">P</text><text xml:space="preserve" font-family="AvenirNextCondensed-DemiBold" font-weight="bold" font-size="25.0" fill="#324763" transform="matrix(1.00, 0.00, -0.00, -1.00, 18.4, 286.0)">O</text><text xml:space="preserve" font-family="AvenirNextCondensed-DemiBold" font-weight="bold" font-size="25.0" fill="#324763" transform="matrix(1.00, 0.00, -0.00, -1.00, 33.1, 286.0)">W</text><text xml:space="preserve" font-family="AvenirNextCondensed-DemiBold" font-weight="bold" font-size="25.0" fill="#324763" transform="matrix(1.00, 0.00, -0.00, -1.00, 52.4, 286.0)">E</text><text xml:space="preserve" font-family="AvenirNextCondensed-DemiBold" font-weight="bold" font-size="25.0" fill="#324763" transform="matrix(1.00, 0.00, -0.00, -1.00, 63.3, 286.0)">R</text><text xml:space="preserve" font-family="AvenirNextCondensed-DemiBold" font-weight="bold" font-size="25.0" fill="#324763" transform="matrix(1.00, 0.00, -0.00, -1.00, 76.1, 286.0)"> </text><text xml:space="preserve" font-family="AvenirNextCondensed-DemiBold" font-weight="bold" font-size="25.0" fill="#324763" transform="matrix(1.00, 0.00, -0.00, -1.00, 81.0, 286.0)">S</text><text xml:space="preserve" font-family="AvenirNextCondensed-DemiBold" font-weight="bold" font-size="25.0" fill="#324763" transform="matrix(1.00, 0.00, -0.00, -1.00, 92.2, 286.0)">U</text><text xml:space="preserve" font-family="AvenirNextCondensed-DemiBold" font-weight="bold" font-size="25.0" fill="#324763" transform="matrix(1.00, 0.00, -0.00, -1.00, 106.4, 286.0)">P</text><text xml:space="preserve" font-family="AvenirNextCondensed-DemiBold" font-weight="bold" font-size="25.0" fill="#324763" transform="matrix(1.00, 0.00, -0.00, -1.00, 118.7, 286.0)">P</text><text xml:space="preserve" font-family="AvenirNextCondensed-DemiBold" font-weight="bold" font-size="25.0" fill="#324763" transform="matrix(1.00, 0.00, -0.00, -1.00, 131.1, 286.0)">L</text><text xml:space="preserve" font-family="AvenirNextCondensed-DemiBold" font-weight="bold" font-size="25.0" fill="#324763" transform="matrix(1.00, 0.00, -0.00, -1.00, 140.1, 286.0)">Y</text></g></g></g></svg>